<?xml version="1.0" encoding="UTF-8"?>
<svg xmlns="http://www.w3.org/2000/svg" xmlns:i="http://ns.adobe.com/AdobeIllustrator/10.0/" version="1.1" viewBox="0 0 1542 620">
  <defs>
    <style>
      .cls-1 {
        stroke: #ced3da;
      }

      .cls-1, .cls-2 {
        fill: none;
        stroke-linecap: round;
        stroke-linejoin: round;
      }

      .cls-2 {
        stroke: #f0cd18;
        stroke-width: 5px;
      }

      .cls-3 {
        fill: #fff;
      }

      .cls-3, .cls-4 {
        stroke-width: 0px;
      }

      .cls-4 {
        fill: #13253d;
      }
    </style>
  </defs>
  <g id="Background">
    <rect class="cls-4" width="1542" height="620"></rect>
  </g>
  <g id="Grid">
    <g id="HorizontalLines">
      <line class="cls-1" x1="112.8" y1="33" x2="1520.1" y2="33"></line>
      <line class="cls-1" x1="112.8" y1="93.9" x2="1520.1" y2="93.9"></line>
      <line class="cls-1" x1="112.8" y1="154.8" x2="1520.1" y2="154.8"></line>
      <line class="cls-1" x1="112.8" y1="215.8" x2="1520.1" y2="215.8"></line>
      <line class="cls-1" x1="112.8" y1="276.7" x2="1520.1" y2="276.7"></line>
      <line class="cls-1" x1="112.8" y1="337.6" x2="1520.1" y2="337.6"></line>
      <line class="cls-1" x1="112.8" y1="398.5" x2="1520.1" y2="398.5"></line>
      <line class="cls-1" x1="112.8" y1="459.4" x2="1520.1" y2="459.4"></line>
      <line class="cls-1" x1="112.8" y1="517.7" x2="1520.1" y2="517.7"></line>
    </g>
    <g id="VerticalLines">
      <line class="cls-1" x1="130.5" y1="33.9" x2="130.5" y2="517.7"></line>
      <line class="cls-1" x1="237.3" y1="33.9" x2="237.3" y2="525.6"></line>
      <line class="cls-1" x1="348.5" y1="33.9" x2="348.5" y2="525.6"></line>
      <line class="cls-1" x1="460.7" y1="33.9" x2="460.7" y2="525.6"></line>
      <line class="cls-1" x1="571.9" y1="33.9" x2="571.9" y2="525.6"></line>
      <line class="cls-1" x1="682.3" y1="33.9" x2="682.3" y2="525.6"></line>
      <line class="cls-1" x1="793.5" y1="33.9" x2="793.5" y2="525.6"></line>
      <line class="cls-1" x1="905.6" y1="33.9" x2="905.6" y2="525.6"></line>
      <line class="cls-1" x1="1016.9" y1="33.9" x2="1016.9" y2="525.6"></line>
      <line class="cls-1" x1="1125.5" y1="33.9" x2="1125.5" y2="525.6"></line>
      <line class="cls-1" x1="1236.7" y1="33.9" x2="1236.7" y2="525.6"></line>
      <line class="cls-1" x1="1348.8" y1="33.9" x2="1348.8" y2="525.6"></line>
      <line class="cls-1" x1="1460.1" y1="33.9" x2="1460.1" y2="525.6"></line>
    </g>
  </g>
  <g id="Horizontal">
    <g>
      <path class="cls-3" d="M203,551.2l-3.8-14h1.8l3,12,3.4-12h1.9l3.3,12,3.1-12h1.8l-3.9,14h-1.9l-3.3-11.6-3.4,11.6h-1.9Z"></path>
      <path class="cls-3" d="M222.7,551.5c-.9,0-1.8-.2-2.5-.7-.7-.4-1.3-1.1-1.7-1.8-.4-.8-.6-1.7-.6-2.8s.2-2,.6-2.8c.4-.8,1-1.4,1.7-1.8.7-.4,1.6-.7,2.5-.7s1.8.2,2.5.7c.7.4,1.2,1,1.6,1.7.4.7.5,1.5.5,2.3v.4c0,.1,0,.3,0,.5h-8.2v-1.3h6.6c0-.9-.3-1.6-.9-2.2-.6-.5-1.3-.8-2.1-.8s-1.1.1-1.6.4-.9.6-1.2,1.1c-.3.5-.4,1.1-.4,1.9v.6c0,.8.1,1.5.4,2.1.3.6.7,1,1.2,1.3.5.3,1,.4,1.6.4s1.3-.2,1.8-.5c.5-.3.8-.7,1-1.3h1.7c-.2.6-.4,1.1-.8,1.6-.4.5-.9.9-1.5,1.1-.6.3-1.3.4-2.1.4Z"></path>
      <path class="cls-3" d="M234.1,551.5c-1,0-1.8-.2-2.6-.7s-1.3-1.1-1.7-1.9-.6-1.7-.6-2.7.2-1.9.6-2.7c.4-.8,1-1.4,1.7-1.9.7-.5,1.6-.7,2.6-.7s1.6.2,2.2.5c.6.3,1.1.8,1.4,1.4v-6h1.7v14.4h-1.5v-1.7c-.4.3-.6.6-1,.9-.3.3-.7.5-1.2.7-.5.2-1,.3-1.6.3ZM234.3,550c.7,0,1.3-.2,1.8-.5.5-.3.9-.8,1.2-1.3.3-.6.4-1.2.4-2s-.1-1.4-.4-2-.7-1-1.2-1.3-1.1-.5-1.8-.5-1.2.2-1.7.5-.9.8-1.2,1.3c-.3.6-.4,1.2-.4,2s.1,1.4.4,2c.3.6.7,1,1.2,1.3.5.3,1.1.5,1.7.5Z"></path>
      <path class="cls-3" d="M240.9,553.7l1.2-4.4h1.7l-1.7,4.4h-1.2Z"></path>
      <path class="cls-3" d="M256.6,551.5c-1.2,0-2.3-.3-3.2-.9s-1.6-1.5-2-2.5c-.5-1.1-.7-2.3-.7-3.8s.2-2.7.7-3.8c.5-1.1,1.1-1.9,2-2.5.9-.6,1.9-.9,3.2-.9s2.3.3,3.1.9c.9.6,1.5,1.5,2,2.5s.7,2.3.7,3.8-.2,2.7-.7,3.8-1.1,1.9-2,2.5-1.9.9-3.1.9ZM256.6,550c.8,0,1.5-.2,2.1-.7.6-.5,1.1-1.1,1.5-2,.4-.9.5-1.9.5-3.1s-.2-2.2-.5-3.1c-.4-.9-.9-1.5-1.5-2-.6-.5-1.3-.7-2.1-.7s-1.5.2-2.1.7c-.6.5-1.1,1.1-1.5,2-.4.9-.5,1.9-.5,3.1s.2,2.2.5,3.1c.4.9.9,1.5,1.5,2,.6.5,1.3.7,2.1.7Z"></path>
      <path class="cls-3" d="M269.3,551.5c-.9,0-1.7-.2-2.4-.5-.7-.3-1.3-.8-1.7-1.5-.4-.7-.7-1.5-.7-2.4h1.7c0,.5.1,1,.4,1.5.2.4.6.8,1.1,1.1.5.3,1,.4,1.7.4s1.2-.1,1.6-.4c.4-.3.8-.6,1-1,.2-.4.3-.9.3-1.4s-.2-1.2-.5-1.6c-.3-.4-.7-.7-1.3-.9s-1.1-.3-1.7-.3h-1v-1.4h1c.9,0,1.6-.2,2.2-.6.5-.4.8-1,.8-1.8s-.2-1.1-.6-1.5c-.4-.4-1-.6-1.8-.6s-1.4.2-1.9.7-.7,1-.8,1.7h-1.7c0-.8.2-1.4.6-2,.4-.6.9-1,1.5-1.4.6-.3,1.4-.5,2.3-.5s1.7.2,2.3.5c.6.3,1.1.7,1.4,1.3.3.5.5,1.1.5,1.8s0,.9-.3,1.3-.4.8-.8,1.1c-.3.3-.8.5-1.3.7.5.1,1,.3,1.5.6s.8.7,1,1.2c.3.5.4,1.1.4,1.7s-.2,1.5-.5,2.1c-.4.6-.9,1.2-1.6,1.6-.7.4-1.6.6-2.6.6Z"></path>
    </g>
    <g>
      <path class="cls-3" d="M321.2,551.4v-14h8.5v1.4h-6.8v4.9h5.8v1.4h-5.8v6.3h-1.7Z"></path>
      <path class="cls-3" d="M331.8,551.4v-10.1h1.5v1.9c.3-.5.6-.8,1-1.2.4-.3.8-.6,1.3-.7.5-.2,1.1-.3,1.7-.3v1.8h-.6c-.4,0-.8,0-1.2.2s-.7.3-1,.5c-.3.3-.5.6-.7,1-.2.4-.2,1-.2,1.6v5.2h-1.7Z"></path>
      <path class="cls-3" d="M340.2,539.2c-.3,0-.6-.1-.8-.3-.2-.2-.3-.5-.3-.8s.1-.6.3-.8c.2-.2.5-.3.8-.3s.6.1.8.3c.2.2.3.5.3.8s-.1.6-.3.8c-.2.2-.5.3-.8.3ZM339.3,551.4v-10.1h1.7v10.1h-1.7Z"></path>
      <path class="cls-3" d="M342.6,553.9l1.2-4.4h1.7l-1.7,4.4h-1.2Z"></path>
      <path class="cls-3" d="M358.4,551.7c-1.2,0-2.3-.3-3.2-.9s-1.6-1.5-2-2.5c-.5-1.1-.7-2.3-.7-3.8s.2-2.7.7-3.8c.5-1.1,1.1-1.9,2-2.5.9-.6,1.9-.9,3.2-.9s2.3.3,3.1.9c.9.6,1.5,1.5,2,2.5s.7,2.3.7,3.8-.2,2.7-.7,3.8-1.1,1.9-2,2.5-1.9.9-3.1.9ZM358.4,550.2c.8,0,1.5-.2,2.1-.7.6-.5,1.1-1.1,1.5-2,.4-.9.5-1.9.5-3.1s-.2-2.2-.5-3.1c-.4-.9-.9-1.5-1.5-2-.6-.5-1.3-.7-2.1-.7s-1.5.2-2.1.7c-.6.5-1.1,1.1-1.5,2-.4.9-.5,1.9-.5,3.1s.2,2.2.5,3.1c.4.9.9,1.5,1.5,2,.6.5,1.3.7,2.1.7Z"></path>
      <path class="cls-3" d="M371.4,551.7c-1,0-1.8-.2-2.5-.5s-1.3-.8-1.7-1.4c-.4-.6-.7-1.3-.8-2h1.6c.2.7.5,1.4,1.1,1.8.6.5,1.3.7,2.2.7s1.2-.2,1.7-.5c.5-.3.8-.7,1.1-1.3.3-.5.4-1.1.4-1.8s-.1-1.3-.4-1.8c-.3-.5-.6-.9-1.1-1.2-.5-.3-1-.4-1.6-.4s-1.4.2-1.9.5-.9.8-1.2,1.3h-1.6l1.2-7.6h7.4v1.5h-6.1l-.8,4.3c.3-.4.8-.7,1.3-1,.6-.2,1.2-.4,1.9-.4s1.3.1,1.9.4,1,.6,1.4,1c.4.4.7,1,.9,1.5s.3,1.2.3,1.9-.1,1.3-.3,1.9c-.2.6-.5,1.1-1,1.6-.4.5-.9.8-1.5,1.1-.6.3-1.3.4-2,.4Z"></path>
    </g>
    <g>
      <path class="cls-3" d="M430.7,551.7c-1,0-1.9-.2-2.7-.6-.8-.4-1.3-.9-1.8-1.6-.4-.7-.6-1.4-.6-2.3h1.8c0,.5.1,1,.4,1.5.3.5.6.8,1.1,1.1s1.1.4,1.8.4,1.2-.1,1.6-.3c.4-.2.8-.5,1-.8.2-.4.4-.8.4-1.2s-.1-1-.4-1.3c-.2-.3-.5-.6-.9-.8-.4-.2-.9-.4-1.4-.6-.5-.2-1.1-.3-1.6-.5-1.1-.4-1.9-.8-2.4-1.4-.5-.6-.8-1.3-.8-2.2s.2-1.4.5-2c.4-.6.9-1,1.5-1.3.7-.3,1.4-.5,2.3-.5s1.7.2,2.3.5c.7.3,1.2.8,1.6,1.4.4.6.6,1.2.6,2h-1.8c0-.4-.1-.8-.3-1.1-.2-.4-.5-.7-.9-.9-.4-.2-.9-.4-1.5-.4-.5,0-1,0-1.4.2-.4.2-.7.4-.9.8-.2.3-.3.7-.3,1.2s0,.8.3,1.1c.2.3.5.5.8.7s.8.4,1.3.5c.5.2,1,.3,1.6.5.7.2,1.3.5,1.8.8.5.3.9.7,1.2,1.2s.5,1.2.5,1.9-.2,1.3-.5,1.9c-.4.6-.9,1.1-1.6,1.4-.7.4-1.6.6-2.6.6Z"></path>
      <path class="cls-3" d="M441.4,551.7c-.8,0-1.5-.2-2-.5-.6-.3-1-.8-1.3-1.4-.3-.6-.5-1.4-.5-2.4v-6h1.7v5.9c0,1,.2,1.8.7,2.3s1.1.8,1.9.8,1.1-.1,1.5-.4c.4-.3.8-.7,1.1-1.2.3-.5.4-1.1.4-1.9v-5.4h1.7v10.1h-1.5v-1.8c-.4.6-.9,1.1-1.5,1.5s-1.3.5-2,.5Z"></path>
      <path class="cls-3" d="M449.2,551.4v-10.1h1.5v1.8c.4-.6.9-1.1,1.5-1.5.6-.4,1.3-.5,2-.5s1.5.2,2,.5,1,.8,1.3,1.4c.3.6.5,1.4.5,2.4v6h-1.7v-5.8c0-1-.2-1.8-.7-2.3-.4-.5-1.1-.8-1.9-.8s-1.1.1-1.5.4-.8.7-1,1.2c-.3.5-.4,1.2-.4,1.9v5.4h-1.7Z"></path>
      <path class="cls-3" d="M459.3,553.9l1.2-4.4h1.7l-1.7,4.4h-1.2Z"></path>
      <path class="cls-3" d="M475.1,551.7c-1.2,0-2.3-.3-3.2-.9s-1.6-1.5-2-2.5c-.5-1.1-.7-2.3-.7-3.8s.2-2.7.7-3.8c.5-1.1,1.1-1.9,2-2.5.9-.6,1.9-.9,3.2-.9s2.3.3,3.1.9c.9.6,1.5,1.5,2,2.5s.7,2.3.7,3.8-.2,2.7-.7,3.8-1.1,1.9-2,2.5-1.9.9-3.1.9ZM475.1,550.2c.8,0,1.5-.2,2.1-.7.6-.5,1.1-1.1,1.5-2,.4-.9.5-1.9.5-3.1s-.2-2.2-.5-3.1c-.4-.9-.9-1.5-1.5-2-.6-.5-1.3-.7-2.1-.7s-1.5.2-2.1.7c-.6.5-1.1,1.1-1.5,2-.4.9-.5,1.9-.5,3.1s.2,2.2.5,3.1c.4.9.9,1.5,1.5,2,.6.5,1.3.7,2.1.7Z"></path>
      <path class="cls-3" d="M484.4,551.4l5.5-12.6h-7.7v-1.4h9.4v1.3l-5.4,12.7h-1.8Z"></path>
    </g>
    <g>
      <path class="cls-3" d="M541,551.4v-12.6h-4.2v-1.4h10v1.4h-4.2v12.6h-1.7Z"></path>
      <path class="cls-3" d="M551.5,551.7c-.8,0-1.5-.2-2-.5-.6-.3-1-.8-1.3-1.4-.3-.6-.5-1.4-.5-2.4v-6h1.7v5.9c0,1,.2,1.8.7,2.3s1.1.8,1.9.8,1.1-.1,1.5-.4c.4-.3.8-.7,1.1-1.2.3-.5.4-1.1.4-1.9v-5.4h1.7v10.1h-1.5v-1.8c-.4.6-.9,1.1-1.5,1.5s-1.3.5-2,.5Z"></path>
      <path class="cls-3" d="M563.8,551.7c-.9,0-1.8-.2-2.5-.7-.7-.4-1.3-1.1-1.7-1.8-.4-.8-.6-1.7-.6-2.8s.2-2,.6-2.8c.4-.8,1-1.4,1.7-1.8.7-.4,1.6-.7,2.5-.7s1.8.2,2.5.7c.7.4,1.2,1,1.6,1.7.4.7.5,1.5.5,2.3v.4c0,.1,0,.3,0,.5h-8.2v-1.3h6.6c0-.9-.3-1.6-.9-2.2-.6-.5-1.3-.8-2.1-.8s-1.1.1-1.6.4-.9.6-1.2,1.1c-.3.5-.4,1.1-.4,1.9v.6c0,.8.1,1.5.4,2.1.3.6.7,1,1.2,1.3.5.3,1,.4,1.6.4s1.3-.2,1.8-.5c.5-.3.8-.7,1-1.3h1.7c-.2.6-.4,1.1-.8,1.6-.4.5-.9.9-1.5,1.1-.6.3-1.3.4-2.1.4Z"></path>
      <path class="cls-3" d="M569.4,553.9l1.2-4.4h1.7l-1.7,4.4h-1.2Z"></path>
      <path class="cls-3" d="M585.1,551.7c-1.2,0-2.3-.3-3.2-.9s-1.6-1.5-2-2.5c-.5-1.1-.7-2.3-.7-3.8s.2-2.7.7-3.8c.5-1.1,1.1-1.9,2-2.5.9-.6,1.9-.9,3.2-.9s2.3.3,3.1.9c.9.6,1.5,1.5,2,2.5s.7,2.3.7,3.8-.2,2.7-.7,3.8-1.1,1.9-2,2.5-1.9.9-3.1.9ZM585.1,550.2c.8,0,1.5-.2,2.1-.7.6-.5,1.1-1.1,1.5-2,.4-.9.5-1.9.5-3.1s-.2-2.2-.5-3.1c-.4-.9-.9-1.5-1.5-2-.6-.5-1.3-.7-2.1-.7s-1.5.2-2.1.7c-.6.5-1.1,1.1-1.5,2-.4.9-.5,1.9-.5,3.1s.2,2.2.5,3.1c.4.9.9,1.5,1.5,2,.6.5,1.3.7,2.1.7Z"></path>
      <path class="cls-3" d="M598,551.7c-.9,0-1.6-.2-2.3-.5-.6-.3-1.1-.8-1.5-1.4s-.6-1.2-.7-1.9h1.6c.1.7.5,1.3,1,1.7.5.4,1.1.6,1.9.6s1.3-.2,1.9-.6c.5-.4,1-1.1,1.3-1.9.3-.9.5-2,.6-3.3h0v-.2c-.2.4-.5.8-.9,1.2-.4.4-.8.6-1.4.9-.5.2-1.1.3-1.8.3s-1.5-.2-2.2-.6c-.7-.4-1.3-.9-1.7-1.6-.4-.7-.7-1.5-.7-2.4s.2-1.5.6-2.3.9-1.3,1.7-1.8,1.6-.7,2.6-.7,1.8.2,2.5.6c.7.4,1.2.9,1.7,1.5.4.6.7,1.4.9,2.2.2.8.3,1.6.3,2.4,0,1.5-.2,2.9-.6,4.1-.4,1.2-1,2.1-1.8,2.8-.8.7-1.8,1-2.9,1ZM598.1,544.9c.6,0,1.2-.1,1.7-.4s.9-.7,1.2-1.1c.3-.5.4-1,.4-1.6s-.1-1.2-.4-1.6-.7-.8-1.2-1.1c-.5-.3-1-.4-1.7-.4s-1.2.1-1.7.4-.9.6-1.1,1.1c-.3.5-.4,1-.4,1.6s.1,1.2.4,1.6c.3.5.7.8,1.1,1.1.5.3,1,.4,1.7.4Z"></path>
    </g>
    <g>
      <path class="cls-3" d="M658.1,551.4v-12.6h-4.2v-1.4h10v1.4h-4.2v12.6h-1.7Z"></path>
      <path class="cls-3" d="M665.9,551.4v-14.4h1.7v6c.3-.6.8-1.1,1.4-1.4.6-.3,1.3-.5,2-.5s1.4.2,2,.5,1,.8,1.3,1.4.5,1.4.5,2.4v6h-1.7v-5.8c0-1-.2-1.8-.6-2.3-.4-.5-1-.8-1.9-.8s-1.1.1-1.6.4-.8.7-1.1,1.2c-.3.5-.4,1.2-.4,1.9v5.3h-1.7Z"></path>
      <path class="cls-3" d="M681.1,551.7c-.8,0-1.5-.2-2-.5-.6-.3-1-.8-1.3-1.4-.3-.6-.5-1.4-.5-2.4v-6h1.7v5.9c0,1,.2,1.8.7,2.3s1.1.8,1.9.8,1.1-.1,1.5-.4c.4-.3.8-.7,1.1-1.2.3-.5.4-1.1.4-1.9v-5.4h1.7v10.1h-1.5v-1.8c-.4.6-.9,1.1-1.5,1.5s-1.3.5-2,.5Z"></path>
      <path class="cls-3" d="M687.6,553.9l1.2-4.4h1.7l-1.7,4.4h-1.2Z"></path>
      <path class="cls-3" d="M699.5,551.4v-12.1l-2.4.6v-1.2l3-1.3h1.1v14h-1.7Z"></path>
      <path class="cls-3" d="M705.7,551.4v-12.1l-2.4.6v-1.2l3-1.3h1.1v14h-1.7Z"></path>
    </g>
    <g>
      <path class="cls-3" d="M769.3,551.7c-1,0-1.9-.2-2.7-.6-.8-.4-1.3-.9-1.8-1.6-.4-.7-.6-1.4-.6-2.3h1.8c0,.5.1,1,.4,1.5.3.5.6.8,1.1,1.1s1.1.4,1.8.4,1.2-.1,1.6-.3c.4-.2.8-.5,1-.8.2-.4.4-.8.4-1.2s-.1-1-.4-1.3c-.2-.3-.5-.6-.9-.8-.4-.2-.9-.4-1.4-.6-.5-.2-1.1-.3-1.6-.5-1.1-.4-1.9-.8-2.4-1.4-.5-.6-.8-1.3-.8-2.2s.2-1.4.5-2c.4-.6.9-1,1.5-1.3.7-.3,1.4-.5,2.3-.5s1.7.2,2.3.5c.7.3,1.2.8,1.5,1.4s.6,1.2.6,2h-1.8c0-.4-.1-.8-.3-1.1-.2-.4-.5-.7-.9-.9-.4-.2-.9-.4-1.5-.4-.5,0-1,0-1.4.2-.4.2-.7.4-.9.8-.2.3-.3.7-.3,1.2s0,.8.3,1.1c.2.3.5.5.8.7s.8.4,1.3.5c.5.2,1,.3,1.6.5.7.2,1.3.5,1.8.8.5.3.9.7,1.2,1.2s.5,1.2.5,1.9-.2,1.3-.5,1.9c-.4.6-.9,1.1-1.6,1.4-.7.4-1.6.6-2.6.6Z"></path>
      <path class="cls-3" d="M779.6,551.7c-.8,0-1.5-.1-2-.4-.5-.3-1-.7-1.2-1.1-.3-.5-.4-1-.4-1.5s.2-1.3.5-1.7c.4-.5.9-.8,1.5-1.1.6-.2,1.4-.4,2.3-.4h2.7c0-.6,0-1.2-.3-1.6s-.5-.7-.8-1c-.4-.2-.8-.3-1.4-.3s-1.2.2-1.7.5-.8.8-.9,1.4h-1.7c0-.7.3-1.3.7-1.8.4-.5.9-.9,1.6-1.1.6-.3,1.3-.4,2-.4s1.7.2,2.3.5c.6.3,1.1.8,1.4,1.4s.5,1.3.5,2.1v6.2h-1.5v-1.8c-.2.3-.4.5-.6.8-.2.2-.4.5-.7.6-.3.2-.6.3-.9.4s-.8.2-1.2.2ZM779.9,550.3c.5,0,.9,0,1.3-.3.4-.2.7-.5,1-.8.3-.3.5-.7.6-1.1.1-.4.2-.8.2-1.3h0c0,0-2.5,0-2.5,0-.7,0-1.2,0-1.6.2s-.7.4-.9.6c-.2.3-.3.6-.3.9s0,.7.2.9.4.5.7.6c.3.1.7.2,1.2.2Z"></path>
      <path class="cls-3" d="M790.9,551.5c-.6,0-1.1,0-1.6-.3-.4-.2-.8-.5-1-1-.2-.4-.3-1-.3-1.8v-5.6h-1.8v-1.4h1.8l.2-2.4h1.5v2.4h2.9v1.4h-2.9v5.6c0,.6.1,1,.4,1.3.3.2.7.3,1.3.3h1.1v1.4h-1.6Z"></path>
      <path class="cls-3" d="M794.5,553.9l1.2-4.4h1.7l-1.7,4.4h-1.2Z"></path>
      <path class="cls-3" d="M806.4,551.5v-12.1l-2.4.6v-1.2l3-1.3h1.1v14h-1.7Z"></path>
      <path class="cls-3" d="M815.5,551.7c-.9,0-1.7-.2-2.4-.5s-1.3-.8-1.7-1.5-.7-1.5-.7-2.4h1.7c0,.5.1,1,.4,1.5.2.4.6.8,1.1,1.1s1,.4,1.7.4,1.2-.1,1.6-.4c.4-.3.8-.6,1-1s.3-.9.3-1.4-.2-1.2-.5-1.6-.7-.7-1.3-.9c-.5-.2-1.1-.3-1.7-.3h-1v-1.4h1c.9,0,1.6-.2,2.2-.6.5-.4.8-1,.8-1.8s-.2-1.1-.6-1.5c-.4-.4-1-.6-1.8-.6s-1.4.2-1.9.7c-.5.5-.7,1-.8,1.7h-1.7c0-.8.2-1.4.6-2s.9-1,1.5-1.4c.6-.3,1.4-.5,2.3-.5s1.7.2,2.3.5c.6.3,1.1.7,1.4,1.3.3.5.5,1.1.5,1.8s0,.9-.3,1.3c-.2.4-.4.8-.8,1.1-.3.3-.8.5-1.3.7.5.1,1,.3,1.5.6s.8.7,1,1.2c.3.5.4,1.1.4,1.7s-.2,1.5-.5,2.1c-.4.6-.9,1.2-1.6,1.6-.7.4-1.6.6-2.6.6Z"></path>
    </g>
    <g>
      <path class="cls-3" d="M871.3,551.5v-14h2l4.9,9.8,5-9.8h2v14h-1.7v-11l-4.6,9h-1.3l-4.6-9v11h-1.7Z"></path>
      <path class="cls-3" d="M892.5,551.7c-.9,0-1.8-.2-2.5-.7-.7-.4-1.3-1-1.8-1.8s-.6-1.7-.6-2.8.2-2,.6-2.8c.4-.8,1-1.4,1.8-1.8.8-.4,1.6-.7,2.5-.7s1.8.2,2.5.7,1.3,1,1.8,1.8.7,1.7.7,2.8-.2,2-.7,2.8c-.4.8-1,1.4-1.8,1.8-.7.4-1.6.7-2.5.7ZM892.5,550.2c.6,0,1.1-.1,1.6-.4s.9-.7,1.2-1.3.5-1.3.5-2.1-.1-1.6-.4-2.1c-.3-.6-.7-1-1.2-1.3-.5-.3-1-.4-1.6-.4s-1.1.1-1.6.4c-.5.3-.9.7-1.2,1.3-.3.6-.5,1.3-.5,2.1s.1,1.5.5,2.1c.3.6.7,1,1.2,1.3.5.3,1,.4,1.6.4Z"></path>
      <path class="cls-3" d="M899.8,551.5v-10.1h1.5v1.8c.4-.6.9-1.1,1.5-1.5.6-.4,1.3-.5,2-.5s1.5.2,2,.5c.6.3,1,.8,1.3,1.4.3.6.5,1.4.5,2.4v6h-1.7v-5.8c0-1-.2-1.8-.7-2.3-.4-.5-1.1-.8-1.9-.8s-1.1.1-1.5.4c-.4.3-.8.7-1,1.2-.3.5-.4,1.2-.4,1.9v5.4h-1.7Z"></path>
      <path class="cls-3" d="M910,553.9l1.2-4.4h1.7l-1.7,4.4h-1.2Z"></path>
      <path class="cls-3" d="M921.9,551.5v-12.1l-2.4.6v-1.2l3-1.3h1.1v14h-1.7Z"></path>
      <path class="cls-3" d="M931.3,551.7c-1,0-1.8-.2-2.5-.5-.7-.3-1.3-.8-1.7-1.4-.4-.6-.7-1.3-.8-2h1.6c.2.7.5,1.4,1.1,1.8.6.5,1.3.7,2.2.7s1.2-.2,1.7-.5c.5-.3.8-.7,1.1-1.3s.4-1.1.4-1.8-.1-1.3-.4-1.8-.6-.9-1.1-1.2c-.5-.3-1-.4-1.6-.4s-1.4.2-1.9.5c-.5.3-.9.8-1.2,1.3h-1.6l1.2-7.6h7.4v1.5h-6.1l-.8,4.3c.3-.4.8-.7,1.3-1,.6-.2,1.2-.4,1.9-.4s1.3.1,1.9.4c.6.2,1,.6,1.4,1,.4.4.7,1,.9,1.5.2.6.3,1.2.3,1.9s-.1,1.3-.3,1.9c-.2.6-.5,1.1-1,1.6-.4.5-.9.8-1.5,1.1-.6.3-1.3.4-2,.4Z"></path>
    </g>
    <g>
      <path class="cls-3" d="M984.1,551.4l-3.8-14h1.8l3,12,3.4-12h1.9l3.3,12,3.1-12h1.8l-3.9,14h-1.9l-3.3-11.6-3.4,11.6h-1.9Z"></path>
      <path class="cls-3" d="M1003.9,551.7c-.9,0-1.8-.2-2.5-.7-.7-.4-1.3-1.1-1.7-1.8-.4-.8-.6-1.7-.6-2.8s.2-2,.6-2.8c.4-.8,1-1.4,1.7-1.8.7-.4,1.6-.7,2.6-.7s1.8.2,2.5.7c.7.4,1.2,1,1.6,1.7.4.7.5,1.5.5,2.3v.4c0,.1,0,.3,0,.5h-8.2v-1.3h6.6c0-.9-.3-1.6-.9-2.2-.6-.5-1.3-.8-2.1-.8s-1.1.1-1.6.4c-.5.3-.9.6-1.2,1.1-.3.5-.4,1.1-.4,1.9v.6c0,.8.1,1.5.5,2.1.3.6.7,1,1.2,1.3.5.3,1,.4,1.6.4s1.3-.2,1.8-.5c.5-.3.8-.7,1-1.3h1.7c-.2.6-.4,1.1-.8,1.6-.4.5-.9.9-1.5,1.1-.6.3-1.3.4-2.1.4Z"></path>
      <path class="cls-3" d="M1015.2,551.7c-1,0-1.8-.2-2.6-.7-.7-.5-1.3-1.1-1.7-1.9s-.6-1.7-.6-2.7.2-1.9.6-2.7c.4-.8,1-1.4,1.7-1.9s1.6-.7,2.6-.7,1.5.2,2.2.5c.6.3,1.1.8,1.4,1.4v-6h1.7v14.4h-1.5v-1.7c-.4.3-.6.6-1,.9-.3.3-.7.5-1.2.7-.5.2-1,.3-1.6.3ZM1015.4,550.2c.7,0,1.3-.2,1.8-.5.5-.3.9-.8,1.2-1.3.3-.6.4-1.2.4-2s-.1-1.4-.4-2c-.3-.6-.7-1-1.2-1.3s-1.1-.5-1.8-.5-1.2.2-1.7.5-.9.8-1.2,1.3-.4,1.2-.4,2,.1,1.4.4,2c.3.6.7,1,1.2,1.3.5.3,1.1.5,1.7.5Z"></path>
      <path class="cls-3" d="M1022,553.9l1.2-4.4h1.7l-1.7,4.4h-1.2Z"></path>
      <path class="cls-3" d="M1033.9,551.4v-12.1l-2.4.6v-1.2l3-1.3h1.1v14h-1.7Z"></path>
      <path class="cls-3" d="M1039.9,551.4l5.5-12.6h-7.7v-1.4h9.4v1.3l-5.4,12.7h-1.8Z"></path>
    </g>
    <g>
      <path class="cls-3" d="M1101.6,551.4v-14h8.5v1.4h-6.8v4.9h5.8v1.4h-5.8v6.3h-1.7Z"></path>
      <path class="cls-3" d="M1112.2,551.4v-10.1h1.5v1.9c.3-.5.6-.8,1-1.2.4-.3.8-.6,1.3-.7.5-.2,1.1-.3,1.7-.3v1.8h-.6c-.4,0-.8,0-1.2.2s-.7.3-1,.5-.5.6-.7,1c-.2.4-.2,1-.2,1.6v5.2h-1.7Z"></path>
      <path class="cls-3" d="M1120.6,539.2c-.3,0-.6-.1-.8-.3-.2-.2-.3-.5-.3-.8s.1-.6.3-.8c.2-.2.5-.3.8-.3s.6.1.8.3c.2.2.3.5.3.8s-.1.6-.3.8-.5.3-.8.3ZM1119.8,551.4v-10.1h1.7v10.1h-1.7Z"></path>
      <path class="cls-3" d="M1123.1,553.9l1.2-4.4h1.7l-1.7,4.4h-1.2Z"></path>
      <path class="cls-3" d="M1135,551.4v-12.1l-2.4.6v-1.2l3-1.3h1.1v14h-1.7Z"></path>
      <path class="cls-3" d="M1144.3,551.7c-.9,0-1.6-.2-2.3-.5-.6-.3-1.1-.8-1.5-1.4-.4-.6-.6-1.2-.7-1.9h1.6c.1.7.5,1.3,1,1.7.5.4,1.1.6,1.9.6s1.3-.2,1.9-.6c.5-.4,1-1.1,1.3-1.9.3-.9.5-2,.6-3.3h0v-.2c-.2.4-.5.8-.9,1.2-.4.4-.8.6-1.4.9-.5.2-1.1.3-1.8.3s-1.5-.2-2.2-.6c-.7-.4-1.3-.9-1.7-1.6-.4-.7-.7-1.5-.7-2.4s.2-1.5.6-2.3.9-1.3,1.7-1.8,1.6-.7,2.6-.7,1.8.2,2.5.6,1.2.9,1.7,1.5c.4.6.7,1.4.9,2.2s.3,1.6.3,2.4c0,1.5-.2,2.9-.6,4.1-.4,1.2-1,2.1-1.8,2.8s-1.8,1-2.9,1ZM1144.4,544.9c.6,0,1.2-.1,1.7-.4s.9-.7,1.2-1.1c.3-.5.4-1,.4-1.6s-.1-1.2-.4-1.6-.7-.8-1.2-1.1c-.5-.3-1-.4-1.7-.4s-1.2.1-1.6.4c-.5.3-.9.6-1.2,1.1s-.4,1-.4,1.6.1,1.2.4,1.6c.3.5.7.8,1.2,1.1.5.3,1,.4,1.6.4Z"></path>
    </g>
    <g>
      <path class="cls-3" d="M1212.8,551.7c-1,0-1.9-.2-2.7-.6-.8-.4-1.3-.9-1.8-1.6-.4-.7-.6-1.4-.6-2.3h1.8c0,.5.1,1,.4,1.5.3.5.6.8,1.1,1.1.5.3,1.1.4,1.8.4s1.2-.1,1.6-.3c.4-.2.8-.5,1-.8.2-.4.4-.8.4-1.2s-.1-1-.4-1.3c-.2-.3-.5-.6-1-.8-.4-.2-.9-.4-1.4-.6-.5-.2-1.1-.3-1.7-.5-1.1-.4-1.9-.8-2.4-1.4-.5-.6-.8-1.3-.8-2.2s.2-1.4.5-2c.4-.6.9-1,1.5-1.3.7-.3,1.4-.5,2.4-.5s1.7.2,2.3.5c.7.3,1.2.8,1.5,1.4.4.6.6,1.2.6,2h-1.8c0-.4,0-.8-.3-1.1s-.5-.7-.9-.9c-.4-.2-.9-.4-1.5-.4-.5,0-1,0-1.3.2-.4.2-.7.4-.9.8-.2.3-.3.7-.3,1.2s0,.8.3,1.1.5.5.8.7c.4.2.8.4,1.3.5s1,.3,1.6.5c.7.2,1.3.5,1.8.8.5.3.9.7,1.2,1.2.3.5.4,1.2.4,1.9s-.2,1.3-.5,1.9c-.4.6-.9,1.1-1.6,1.4s-1.6.6-2.6.6Z"></path>
      <path class="cls-3" d="M1223.5,551.7c-.8,0-1.4-.2-2-.5s-1-.8-1.3-1.4c-.3-.6-.5-1.4-.5-2.4v-6h1.7v5.9c0,1,.2,1.8.7,2.3.4.5,1.1.8,1.9.8s1.1-.1,1.5-.4c.4-.3.8-.7,1.1-1.2.3-.5.4-1.1.4-1.9v-5.4h1.7v10.1h-1.5v-1.8c-.4.6-.9,1.1-1.5,1.5-.6.4-1.3.5-2,.5Z"></path>
      <path class="cls-3" d="M1231.3,551.4v-10.1h1.5v1.8c.4-.6.9-1.1,1.5-1.5.6-.4,1.3-.5,2-.5s1.5.2,2,.5c.6.3,1,.8,1.3,1.4.3.6.5,1.4.5,2.4v6h-1.7v-5.8c0-1-.2-1.8-.7-2.3-.4-.5-1.1-.8-1.9-.8s-1.1.1-1.5.4c-.4.3-.8.7-1,1.2-.3.5-.4,1.2-.4,1.9v5.4h-1.7Z"></path>
      <path class="cls-3" d="M1241.4,553.9l1.2-4.4h1.7l-1.7,4.4h-1.2Z"></path>
      <path class="cls-3" d="M1251.6,551.4v-1.2c1-.7,1.9-1.5,2.7-2.3.9-.8,1.6-1.5,2.3-2.3.7-.8,1.2-1.5,1.6-2.2.4-.7.6-1.4.6-2.1s0-1-.3-1.4c-.2-.4-.5-.8-.8-1-.4-.3-.9-.4-1.5-.4s-1.1.1-1.6.4c-.4.3-.7.6-.9,1.1-.2.4-.3.9-.3,1.5h-1.6c0-.9.2-1.7.6-2.4s.9-1.2,1.6-1.5,1.4-.5,2.3-.5,1.6.2,2.2.5c.6.3,1.1.8,1.5,1.4.4.6.5,1.4.5,2.3s-.1,1.3-.4,2-.6,1.3-1.1,1.9c-.5.6-1,1.2-1.5,1.8-.6.6-1.1,1.1-1.7,1.6-.6.5-1.1,1-1.6,1.4h6.8v1.4h-9.3Z"></path>
      <path class="cls-3" d="M1264.9,551.4v-12.1l-2.4.6v-1.2l3-1.3h1.1v14h-1.7Z"></path>
    </g>
    <g>
      <path class="cls-3" d="M1318.3,551.4v-12.6h-4.2v-1.4h10v1.4h-4.2v12.6h-1.7Z"></path>
      <path class="cls-3" d="M1328.8,551.7c-.8,0-1.4-.2-2-.5s-1-.8-1.3-1.4c-.3-.6-.5-1.4-.5-2.4v-6h1.7v5.9c0,1,.2,1.8.7,2.3.4.5,1.1.8,1.9.8s1.1-.1,1.5-.4c.4-.3.8-.7,1.1-1.2.3-.5.4-1.1.4-1.9v-5.4h1.7v10.1h-1.5v-1.8c-.4.6-.9,1.1-1.5,1.5-.6.4-1.3.5-2,.5Z"></path>
      <path class="cls-3" d="M1341,551.7c-.9,0-1.8-.2-2.5-.7-.7-.4-1.3-1.1-1.7-1.8-.4-.8-.6-1.7-.6-2.8s.2-2,.6-2.8c.4-.8,1-1.4,1.7-1.8.7-.4,1.6-.7,2.6-.7s1.8.2,2.5.7c.7.4,1.2,1,1.6,1.7.4.7.5,1.5.5,2.3v.4c0,.1,0,.3,0,.5h-8.2v-1.3h6.6c0-.9-.3-1.6-.9-2.2-.6-.5-1.3-.8-2.1-.8s-1.1.1-1.6.4c-.5.3-.9.6-1.2,1.1-.3.5-.4,1.1-.4,1.9v.6c0,.8.1,1.5.5,2.1.3.6.7,1,1.2,1.3.5.3,1,.4,1.6.4s1.3-.2,1.8-.5c.5-.3.8-.7,1-1.3h1.7c-.2.6-.4,1.1-.8,1.6-.4.5-.9.9-1.5,1.1-.6.3-1.3.4-2.1.4Z"></path>
      <path class="cls-3" d="M1346.7,553.9l1.2-4.4h1.7l-1.7,4.4h-1.2Z"></path>
      <path class="cls-3" d="M1356.8,551.4v-1.2c1-.7,1.9-1.5,2.7-2.3.9-.8,1.6-1.5,2.3-2.3.7-.8,1.2-1.5,1.6-2.2.4-.7.6-1.4.6-2.1s0-1-.3-1.4c-.2-.4-.5-.8-.8-1-.4-.3-.9-.4-1.5-.4s-1.1.1-1.6.4c-.4.3-.7.6-.9,1.1-.2.4-.3.9-.3,1.5h-1.6c0-.9.2-1.7.6-2.4s.9-1.2,1.6-1.5,1.4-.5,2.3-.5,1.6.2,2.2.5c.6.3,1.1.8,1.5,1.4.4.6.5,1.4.5,2.3s-.1,1.3-.4,2-.6,1.3-1.1,1.9c-.5.6-1,1.2-1.5,1.8-.6.6-1.1,1.1-1.7,1.6-.6.5-1.1,1-1.6,1.4h6.8v1.4h-9.3Z"></path>
      <path class="cls-3" d="M1372.9,551.7c-.9,0-1.7-.2-2.4-.5s-1.3-.8-1.7-1.5-.7-1.5-.7-2.4h1.7c0,.5.1,1,.4,1.5.2.4.6.8,1.1,1.1s1,.4,1.7.4,1.2-.1,1.6-.4c.4-.3.8-.6,1-1s.3-.9.3-1.4-.2-1.2-.5-1.6-.7-.7-1.3-.9c-.5-.2-1.1-.3-1.7-.3h-1v-1.4h1c.9,0,1.6-.2,2.2-.6.5-.4.8-1,.8-1.8s-.2-1.1-.6-1.5c-.4-.4-1-.6-1.8-.6s-1.4.2-1.9.7c-.5.5-.7,1-.8,1.7h-1.7c0-.8.2-1.4.6-2s.9-1,1.5-1.4c.6-.3,1.4-.5,2.3-.5s1.7.2,2.3.5c.6.3,1.1.7,1.4,1.3.3.5.5,1.1.5,1.8s0,.9-.3,1.3c-.2.4-.4.8-.8,1.1-.3.3-.8.5-1.3.7.5.1,1,.3,1.5.6s.8.7,1,1.2c.3.5.4,1.1.4,1.7s-.2,1.5-.5,2.1c-.4.6-.9,1.2-1.6,1.6-.7.4-1.6.6-2.6.6Z"></path>
    </g>
    <g>
      <path class="cls-3" d="M1431,551.4v-12.6h-4.2v-1.4h10v1.4h-4.2v12.6h-1.7Z"></path>
      <path class="cls-3" d="M1438.8,551.4v-14.4h1.7v6c.3-.6.8-1.1,1.4-1.4.6-.3,1.3-.5,2-.5s1.4.2,2,.5,1,.8,1.3,1.4c.3.6.5,1.4.5,2.4v6h-1.7v-5.8c0-1-.2-1.8-.6-2.3-.4-.5-1-.8-1.9-.8s-1.1.1-1.5.4-.8.7-1.1,1.2c-.3.5-.4,1.2-.4,1.9v5.3h-1.7Z"></path>
      <path class="cls-3" d="M1454,551.7c-.8,0-1.4-.2-2-.5s-1-.8-1.3-1.4c-.3-.6-.5-1.4-.5-2.4v-6h1.7v5.9c0,1,.2,1.8.7,2.3.4.5,1.1.8,1.9.8s1.1-.1,1.5-.4c.4-.3.8-.7,1.1-1.2.3-.5.4-1.1.4-1.9v-5.4h1.7v10.1h-1.5v-1.8c-.4.6-.9,1.1-1.5,1.5-.6.4-1.3.5-2,.5Z"></path>
      <path class="cls-3" d="M1460.4,553.9l1.2-4.4h1.7l-1.7,4.4h-1.2Z"></path>
      <path class="cls-3" d="M1470.6,551.4v-1.2c1-.7,1.9-1.5,2.7-2.3.9-.8,1.6-1.5,2.3-2.3.7-.8,1.2-1.5,1.6-2.2.4-.7.6-1.4.6-2.1s0-1-.3-1.4c-.2-.4-.5-.8-.8-1-.4-.3-.9-.4-1.5-.4s-1.1.1-1.6.4c-.4.3-.7.6-.9,1.1-.2.4-.3.9-.3,1.5h-1.6c0-.9.2-1.7.6-2.4s.9-1.2,1.6-1.5,1.4-.5,2.3-.5,1.6.2,2.2.5c.6.3,1.1.8,1.5,1.4.4.6.5,1.4.5,2.3s-.1,1.3-.4,2-.6,1.3-1.1,1.9c-.5.6-1,1.2-1.5,1.8-.6.6-1.1,1.1-1.7,1.6-.6.5-1.1,1-1.6,1.4h6.8v1.4h-9.3Z"></path>
      <path class="cls-3" d="M1487.1,551.7c-1,0-1.8-.2-2.5-.5-.7-.3-1.3-.8-1.7-1.4-.4-.6-.7-1.3-.8-2h1.6c.2.7.5,1.4,1.1,1.8.6.5,1.3.7,2.2.7s1.2-.2,1.7-.5c.5-.3.8-.7,1.1-1.3s.4-1.1.4-1.8-.1-1.3-.4-1.8-.6-.9-1.1-1.2c-.5-.3-1-.4-1.6-.4s-1.4.2-1.9.5c-.5.3-.9.8-1.2,1.3h-1.6l1.2-7.6h7.4v1.5h-6.1l-.8,4.3c.3-.4.8-.7,1.3-1,.6-.2,1.2-.4,1.9-.4s1.3.1,1.9.4c.6.2,1,.6,1.4,1,.4.4.7,1,.9,1.5.2.6.3,1.2.3,1.9s-.1,1.3-.3,1.9c-.2.6-.5,1.1-1,1.6-.4.5-.9.8-1.5,1.1-.6.3-1.3.4-2,.4Z"></path>
    </g>
    <g>
      <path class="cls-3" d="M550.4,592.4v-12.1h1.8v2.3c.4-.5.8-1,1.2-1.4.4-.4.9-.7,1.5-.9.6-.2,1.3-.3,2.1-.3v2.1h-.7c-.5,0-1,0-1.5.2-.5.1-.9.4-1.2.7-.4.3-.6.7-.8,1.2-.2.5-.3,1.2-.3,1.9v6.2h-2Z"></path>
      <path class="cls-3" d="M564.1,592.7c-1.1,0-2.1-.3-3-.8-.9-.5-1.6-1.3-2.1-2.2-.5-1-.7-2.1-.7-3.3s.2-2.4.7-3.3c.5-.9,1.2-1.7,2.1-2.2.9-.5,1.9-.8,3.1-.8s2.2.3,3,.8c.8.5,1.5,1.2,1.9,2.1.4.9.7,1.8.7,2.8v.5c0,.2,0,.4,0,.6h-9.9v-1.6h7.9c0-1.1-.4-2-1.1-2.6-.7-.6-1.5-.9-2.6-.9s-1.3.2-1.9.5c-.6.3-1.1.8-1.4,1.4-.4.6-.5,1.3-.5,2.2v.7c0,1,.2,1.8.5,2.5s.8,1.2,1.4,1.5c.6.3,1.2.5,1.9.5s1.5-.2,2.1-.6c.6-.4.9-.9,1.2-1.5h2c-.2.7-.5,1.4-1,1.9-.5.6-1.1,1-1.8,1.4s-1.5.5-2.5.5Z"></path>
      <path class="cls-3" d="M577.1,598c-1.1,0-2.1-.1-2.9-.4-.8-.3-1.5-.7-2-1.3-.5-.6-.7-1.3-.7-2.1s0-.8.2-1.2c.2-.4.4-.8.8-1.2.4-.4.9-.8,1.6-1.1l1.4.8c-.8.4-1.4.8-1.7,1.2-.3.5-.4.9-.4,1.3s.2,1,.5,1.3c.3.4.7.6,1.3.8.5.2,1.2.3,1.8.3s1.3,0,1.8-.3c.5-.2.9-.5,1.2-.8.3-.4.4-.8.4-1.2s-.2-1-.6-1.4-1.2-.6-2.4-.7c-.9,0-1.7-.2-2.4-.3-.6-.1-1.2-.2-1.6-.4-.4-.2-.8-.3-1-.5-.3-.2-.5-.4-.8-.6v-.6l2.3-2.3,1.8.6-2.4,2.2.3-.8c.2.1.3.2.5.4.2.1.4.2.6.3s.7.2,1.1.2c.5,0,1.1.1,1.9.2,1.1,0,2,.3,2.7.6s1.1.7,1.4,1.2.4,1.1.4,1.8-.2,1.3-.6,2c-.4.6-1,1.1-1.7,1.5-.8.4-1.8.6-3,.6ZM577.1,588.6c-1,0-1.9-.2-2.6-.6-.7-.4-1.3-.9-1.6-1.5s-.6-1.4-.6-2.2.2-1.5.6-2.2c.4-.6.9-1.2,1.6-1.5.7-.4,1.6-.6,2.6-.6s1.9.2,2.6.6c.7.4,1.2.9,1.6,1.5.4.6.6,1.4.6,2.2s-.2,1.5-.6,2.2-.9,1.2-1.6,1.5-1.6.6-2.6.6ZM577.1,587c.9,0,1.5-.2,2-.7.5-.4.7-1.1.7-2s-.2-1.5-.7-1.9c-.5-.4-1.2-.7-2-.7s-1.5.2-2.1.7c-.5.4-.8,1.1-.8,1.9s.3,1.5.8,2c.5.4,1.2.7,2.1.7ZM579.1,582l-.6-1.7h4.9v1.5l-4.3.2Z"></path>
      <path class="cls-3" d="M587,577.7c-.4,0-.7-.1-1-.4-.3-.3-.4-.6-.4-1s.1-.7.4-1c.3-.2.6-.4,1-.4s.7.1,1,.4c.3.2.4.6.4,1s-.1.7-.4,1c-.3.3-.6.4-1,.4ZM586,592.4v-12.1h2v12.1h-2Z"></path>
      <path class="cls-3" d="M596.1,592.7c-1,0-1.9-.2-2.6-.5-.7-.3-1.3-.8-1.8-1.4-.4-.6-.7-1.3-.8-2.1h2.1c0,.4.2.8.5,1.2.3.4.6.6,1,.9.4.2,1,.3,1.6.3s1,0,1.4-.3.6-.4.8-.7c.2-.3.3-.6.3-.9,0-.5-.1-.9-.3-1.1-.2-.3-.6-.5-1-.6-.4-.2-1-.3-1.6-.4-.5,0-1-.2-1.6-.4-.5-.2-1-.4-1.4-.6-.4-.3-.7-.6-.9-1s-.3-.9-.3-1.4.2-1.3.5-1.8c.4-.5.9-1,1.5-1.3s1.4-.5,2.3-.5c1.3,0,2.3.3,3.1.9.8.6,1.3,1.5,1.4,2.7h-2c0-.6-.3-1.1-.8-1.4-.4-.3-1-.5-1.8-.5s-1.3.2-1.7.5c-.4.3-.6.7-.6,1.2s.1.6.3.9c.2.2.5.5,1,.6.4.2.9.3,1.6.4.8.1,1.5.3,2.2.6.7.2,1.2.6,1.6,1.1.4.5.6,1.1.6,2s-.2,1.4-.6,2c-.4.6-.9,1-1.6,1.3-.7.3-1.5.5-2.4.5Z"></path>
      <path class="cls-3" d="M607.8,592.4c-.7,0-1.3-.1-1.9-.3-.5-.2-.9-.6-1.2-1.1-.3-.5-.4-1.3-.4-2.2v-6.7h-2.1v-1.7h2.1l.3-2.9h1.8v2.9h3.5v1.7h-3.5v6.7c0,.8.2,1.3.5,1.5.3.3.8.4,1.6.4h1.3v1.7h-1.9Z"></path>
      <path class="cls-3" d="M612.5,592.4v-12.1h1.8v2.3c.4-.5.8-1,1.2-1.4.4-.4.9-.7,1.5-.9.6-.2,1.3-.3,2.1-.3v2.1h-.7c-.5,0-1,0-1.5.2-.5.1-.9.4-1.2.7-.4.3-.6.7-.8,1.2-.2.5-.3,1.2-.3,1.9v6.2h-2Z"></path>
      <path class="cls-3" d="M622.7,597.7l3-6.6h-.7l-4.8-10.8h2.2l3.9,9.2,4.1-9.2h2.1l-7.7,17.4h-2.1Z"></path>
      <path class="cls-3" d="M633.7,592.5c-.4,0-.7-.1-1-.4-.3-.3-.4-.6-.4-1s.1-.7.4-1c.3-.3.6-.4,1-.4s.7.1,1,.4c.3.3.4.6.4,1s-.1.7-.4,1c-.3.3-.6.4-1,.4Z"></path>
      <path class="cls-3" d="M643.1,592.7c-1.1,0-2.2-.3-3-.8-.9-.5-1.6-1.3-2.1-2.2-.5-1-.8-2.1-.8-3.3s.3-2.4.8-3.4c.5-1,1.2-1.7,2.1-2.2.9-.5,1.9-.8,3.1-.8s2.1.3,3,.8c.9.5,1.6,1.3,2.1,2.2.5.9.8,2.1.8,3.4s-.3,2.4-.8,3.3c-.5,1-1.2,1.7-2.1,2.2s-1.9.8-3,.8ZM643.1,591c.7,0,1.3-.2,1.9-.5.6-.3,1.1-.9,1.4-1.5.4-.7.6-1.5.6-2.5s-.2-1.9-.5-2.6c-.4-.7-.8-1.2-1.4-1.5-.6-.3-1.2-.5-1.9-.5s-1.3.2-1.9.5c-.6.3-1.1.9-1.4,1.5-.4.7-.5,1.5-.5,2.6s.2,1.9.5,2.5c.4.7.8,1.2,1.4,1.5.6.3,1.2.5,1.9.5Z"></path>
      <path class="cls-3" d="M652,597.7v-17.4h1.8l.2,2c.3-.4.6-.7,1-1.1s.9-.6,1.4-.8c.6-.2,1.2-.3,1.9-.3,1.2,0,2.2.3,3.1.8.9.6,1.6,1.3,2,2.3.5,1,.7,2,.7,3.3s-.2,2.3-.7,3.3c-.5,1-1.2,1.7-2.1,2.2-.9.5-1.9.8-3.1.8s-1.8-.2-2.6-.6c-.7-.4-1.3-1-1.7-1.7v7.3h-2ZM658.1,590.9c.8,0,1.5-.2,2.1-.6s1.1-.9,1.4-1.6c.3-.7.5-1.5.5-2.4s-.2-1.7-.5-2.4c-.3-.7-.8-1.2-1.4-1.6-.6-.4-1.3-.6-2.1-.6s-1.5.2-2.1.6c-.6.4-1.1.9-1.4,1.6-.3.7-.5,1.5-.5,2.4s.2,1.7.5,2.4.8,1.2,1.4,1.6c.6.4,1.3.6,2.1.6Z"></path>
      <path class="cls-3" d="M672.3,592.7c-1.1,0-2.1-.3-3-.8-.9-.5-1.6-1.3-2.1-2.2-.5-1-.7-2.1-.7-3.3s.2-2.4.7-3.3c.5-.9,1.2-1.7,2.1-2.2.9-.5,1.9-.8,3.1-.8s2.2.3,3,.8c.8.5,1.5,1.2,1.9,2.1.4.9.7,1.8.7,2.8v.5c0,.2,0,.4,0,.6h-9.9v-1.6h7.9c0-1.1-.4-2-1.1-2.6-.7-.6-1.5-.9-2.6-.9s-1.3.2-1.9.5c-.6.3-1.1.8-1.4,1.4-.4.6-.5,1.3-.5,2.2v.7c0,1,.2,1.8.5,2.5s.8,1.2,1.4,1.5c.6.3,1.2.5,1.9.5s1.5-.2,2.1-.6c.6-.4.9-.9,1.2-1.5h2c-.2.7-.5,1.4-1,1.9-.5.6-1.1,1-1.8,1.4s-1.5.5-2.5.5Z"></path>
      <path class="cls-3" d="M680.6,592.4v-12.1h1.8v2.1c.5-.8,1-1.3,1.7-1.8.7-.4,1.5-.6,2.4-.6s1.8.2,2.4.6c.7.4,1.2.9,1.6,1.7.4.8.6,1.7.6,2.9v7.2h-2v-7c0-1.2-.3-2.1-.8-2.7-.5-.6-1.3-.9-2.3-.9s-1.3.2-1.8.5c-.5.3-.9.8-1.3,1.4-.3.6-.5,1.4-.5,2.3v6.5h-2Z"></path>
      <path class="cls-3" d="M699.1,592.4c-.7,0-1.3-.1-1.9-.3-.5-.2-.9-.6-1.2-1.1-.3-.5-.4-1.3-.4-2.2v-6.7h-2.1v-1.7h2.1l.3-2.9h1.8v2.9h3.5v1.7h-3.5v6.7c0,.8.2,1.3.5,1.5.3.3.8.4,1.6.4h1.3v1.7h-1.9Z"></path>
      <path class="cls-3" d="M708.9,592.7c-1.1,0-2.2-.3-3-.8-.9-.5-1.6-1.3-2.1-2.2-.5-1-.8-2.1-.8-3.3s.3-2.4.8-3.4c.5-1,1.2-1.7,2.1-2.2.9-.5,1.9-.8,3.1-.8s2.1.3,3,.8c.9.5,1.6,1.3,2.1,2.2.5.9.8,2.1.8,3.4s-.3,2.4-.8,3.3c-.5,1-1.2,1.7-2.1,2.2s-1.9.8-3,.8ZM708.9,591c.7,0,1.3-.2,1.9-.5.6-.3,1.1-.9,1.4-1.5.4-.7.6-1.5.6-2.5s-.2-1.9-.5-2.6c-.4-.7-.8-1.2-1.4-1.5-.6-.3-1.2-.5-1.9-.5s-1.3.2-1.9.5c-.6.3-1.1.9-1.4,1.5-.4.7-.5,1.5-.5,2.6s.2,1.9.5,2.5c.4.7.8,1.2,1.4,1.5.6.3,1.2.5,1.9.5Z"></path>
      <path class="cls-3" d="M716.5,582v-1.7h6.9v1.7h-6.9ZM718.4,592.4v-14c0-.8.1-1.4.4-1.9s.6-.8,1.1-1.1c.5-.2,1.1-.3,1.9-.3h1.4v1.7h-1.1c-.6,0-1,.1-1.3.4-.3.2-.4.7-.4,1.3v13.9h-2Z"></path>
      <path class="cls-3" d="M730.2,592.7c-.9,0-1.7-.2-2.4-.6-.7-.4-1.2-.9-1.6-1.7-.4-.8-.6-1.7-.6-2.9v-7.2h2v7c0,1.2.3,2.1.8,2.7.5.6,1.3.9,2.3.9s1.3-.2,1.8-.5,1-.8,1.3-1.4.5-1.4.5-2.3v-6.5h2v12.1h-1.8v-2.1c-.5.8-1,1.3-1.8,1.8s-1.5.6-2.4.6Z"></path>
      <path class="cls-3" d="M740.3,592.5c-.4,0-.7-.1-1-.4-.3-.3-.4-.6-.4-1s.1-.7.4-1c.3-.3.6-.4,1-.4s.7.1,1,.4c.3.3.4.6.4,1s-.1.7-.4,1c-.3.3-.6.4-1,.4Z"></path>
      <path class="cls-3" d="M749.8,592.7c-1.1,0-2.2-.3-3-.8-.9-.5-1.6-1.3-2.1-2.2-.5-1-.8-2.1-.8-3.3s.3-2.4.8-3.4c.5-1,1.2-1.7,2.1-2.2.9-.5,1.9-.8,3.1-.8s2.1.3,3,.8c.9.5,1.6,1.3,2.1,2.2.5.9.8,2.1.8,3.4s-.3,2.4-.8,3.3c-.5,1-1.2,1.7-2.1,2.2s-1.9.8-3,.8ZM749.8,591c.7,0,1.3-.2,1.9-.5.6-.3,1.1-.9,1.4-1.5.4-.7.6-1.5.6-2.5s-.2-1.9-.5-2.6c-.4-.7-.8-1.2-1.4-1.5-.6-.3-1.2-.5-1.9-.5s-1.3.2-1.9.5c-.6.3-1.1.9-1.4,1.5-.4.7-.5,1.5-.5,2.6s.2,1.9.5,2.5c.4.7.8,1.2,1.4,1.5.6.3,1.2.5,1.9.5Z"></path>
      <path class="cls-3" d="M758.6,592.4v-12.1h1.8v2.3c.4-.5.8-1,1.2-1.4.4-.4.9-.7,1.5-.9.6-.2,1.3-.3,2.1-.3v2.1h-.7c-.5,0-1,0-1.5.2-.5.1-.9.4-1.2.7-.4.3-.6.7-.8,1.2s-.3,1.2-.3,1.9v6.2h-2Z"></path>
      <path class="cls-3" d="M772,598c-1.1,0-2.1-.1-2.9-.4-.8-.3-1.5-.7-2-1.3-.5-.6-.7-1.3-.7-2.1s0-.8.2-1.2.4-.8.8-1.2c.4-.4.9-.8,1.6-1.1l1.4.8c-.8.4-1.4.8-1.7,1.2s-.4.9-.4,1.3.2,1,.5,1.3c.3.4.7.6,1.3.8.5.2,1.2.3,1.8.3s1.3,0,1.8-.3c.5-.2.9-.5,1.2-.8.3-.4.4-.8.4-1.2s-.2-1-.6-1.4-1.2-.6-2.4-.7c-.9,0-1.7-.2-2.4-.3-.6-.1-1.2-.2-1.6-.4-.4-.2-.8-.3-1-.5-.3-.2-.5-.4-.8-.6v-.6l2.3-2.3,1.8.6-2.4,2.2.3-.8c.2.1.3.2.5.4.2.1.4.2.6.3s.7.2,1.1.2c.5,0,1.1.1,1.9.2,1.1,0,2,.3,2.7.6.7.3,1.1.7,1.4,1.2s.4,1.1.4,1.8-.2,1.3-.6,2c-.4.6-1,1.1-1.7,1.5-.8.4-1.8.6-3,.6ZM771.9,588.6c-1,0-1.9-.2-2.6-.6s-1.3-.9-1.6-1.5c-.4-.6-.6-1.4-.6-2.2s.2-1.5.6-2.2c.4-.6.9-1.2,1.6-1.5.7-.4,1.6-.6,2.6-.6s1.9.2,2.6.6c.7.4,1.2.9,1.6,1.5.4.6.6,1.4.6,2.2s-.2,1.5-.6,2.2c-.4.6-.9,1.2-1.6,1.5s-1.6.6-2.6.6ZM771.9,587c.9,0,1.5-.2,2-.7.5-.4.7-1.1.7-2s-.2-1.5-.7-1.9c-.5-.4-1.2-.7-2-.7s-1.5.2-2.1.7c-.5.4-.8,1.1-.8,1.9s.3,1.5.8,2c.5.4,1.2.7,2.1.7ZM773.9,582l-.6-1.7h4.9v1.5l-4.3.2Z"></path>
      <path class="cls-3" d="M787,592.4v-12.1h1.8v2.3c.4-.5.8-1,1.2-1.4.4-.4.9-.7,1.5-.9.6-.2,1.3-.3,2.1-.3v2.1h-.7c-.5,0-1,0-1.5.2-.5.1-.9.4-1.2.7-.4.3-.6.7-.8,1.2s-.3,1.2-.3,1.9v6.2h-2Z"></path>
      <path class="cls-3" d="M800.7,592.7c-1.1,0-2.1-.3-3-.8s-1.6-1.3-2.1-2.2-.7-2.1-.7-3.3.2-2.4.7-3.3c.5-.9,1.2-1.7,2.1-2.2.9-.5,1.9-.8,3.1-.8s2.2.3,3,.8c.8.5,1.5,1.2,1.9,2.1.4.9.7,1.8.7,2.8v.5c0,.2,0,.4,0,.6h-9.9v-1.6h7.9c0-1.1-.4-2-1.1-2.6-.7-.6-1.5-.9-2.6-.9s-1.3.2-1.9.5c-.6.3-1.1.8-1.4,1.4-.4.6-.5,1.3-.5,2.2v.7c0,1,.2,1.8.5,2.5.4.7.8,1.2,1.4,1.5s1.2.5,1.9.5,1.5-.2,2.1-.6c.6-.4.9-.9,1.2-1.5h2c-.2.7-.5,1.4-1,1.9-.5.6-1.1,1-1.8,1.4s-1.5.5-2.5.5Z"></path>
      <path class="cls-3" d="M818.7,597.7v-7.2c-.4.6-.9,1.2-1.7,1.6-.7.4-1.6.7-2.7.7s-2.2-.3-3.1-.8-1.6-1.3-2-2.3c-.5-1-.7-2-.7-3.3s.2-2.3.7-3.3c.5-1,1.2-1.7,2.1-2.3.9-.6,1.9-.8,3.1-.8s1.3,0,1.9.3c.6.2,1,.5,1.5.8.4.3.8.7,1,1.2l.2-2h1.8v17.4h-2ZM814.6,590.9c.8,0,1.5-.2,2.1-.6.6-.4,1.1-.9,1.4-1.6s.5-1.5.5-2.4-.2-1.7-.5-2.4c-.3-.7-.8-1.2-1.4-1.6-.6-.4-1.3-.6-2.1-.6s-1.5.2-2.1.6c-.6.4-1.1.9-1.4,1.6-.3.7-.5,1.5-.5,2.4s.2,1.7.5,2.4.8,1.2,1.4,1.6c.6.4,1.3.6,2.1.6Z"></path>
      <path class="cls-3" d="M828.5,592.7c-.9,0-1.7-.2-2.4-.6-.7-.4-1.2-.9-1.6-1.7-.4-.8-.6-1.7-.6-2.9v-7.2h2v7c0,1.2.3,2.1.8,2.7.5.6,1.3.9,2.3.9s1.3-.2,1.8-.5,1-.8,1.3-1.4c.3-.6.5-1.4.5-2.3v-6.5h2v12.1h-1.8v-2.1c-.5.8-1,1.3-1.8,1.8-.7.4-1.5.6-2.4.6Z"></path>
      <path class="cls-3" d="M843.1,592.7c-1.1,0-2.1-.3-3-.8s-1.6-1.3-2.1-2.2-.7-2.1-.7-3.3.2-2.4.7-3.3c.5-.9,1.2-1.7,2.1-2.2.9-.5,1.9-.8,3.1-.8s2.2.3,3,.8c.8.5,1.5,1.2,1.9,2.1.4.9.7,1.8.7,2.8v.5c0,.2,0,.4,0,.6h-9.9v-1.6h7.9c0-1.1-.4-2-1.1-2.6-.7-.6-1.5-.9-2.6-.9s-1.3.2-1.9.5c-.6.3-1.1.8-1.4,1.4-.4.6-.5,1.3-.5,2.2v.7c0,1,.2,1.8.5,2.5.4.7.8,1.2,1.4,1.5s1.2.5,1.9.5,1.5-.2,2.1-.6c.6-.4.9-.9,1.2-1.5h2c-.2.7-.5,1.4-1,1.9-.5.6-1.1,1-1.8,1.4s-1.5.5-2.5.5Z"></path>
      <path class="cls-3" d="M856,592.7c-1,0-1.9-.2-2.6-.5s-1.3-.8-1.8-1.4c-.4-.6-.7-1.3-.8-2.1h2.1c0,.4.2.8.5,1.2s.6.6,1,.9c.4.2,1,.3,1.6.3s1,0,1.4-.3c.4-.2.6-.4.8-.7.2-.3.3-.6.3-.9,0-.5-.1-.9-.3-1.1-.2-.3-.6-.5-1-.6-.4-.2-1-.3-1.6-.4-.5,0-1-.2-1.6-.4-.5-.2-1-.4-1.4-.6-.4-.3-.7-.6-.9-1-.2-.4-.3-.9-.3-1.4s.2-1.3.5-1.8c.4-.5.9-1,1.5-1.3s1.4-.5,2.3-.5c1.3,0,2.3.3,3.1.9s1.3,1.5,1.4,2.7h-2c0-.6-.3-1.1-.8-1.4-.4-.3-1-.5-1.8-.5s-1.3.2-1.7.5c-.4.3-.6.7-.6,1.2s.1.6.3.9c.2.2.5.5,1,.6.4.2.9.3,1.6.4.8.1,1.5.3,2.2.6.7.2,1.2.6,1.6,1.1s.6,1.1.6,2-.2,1.4-.6,2c-.4.6-.9,1-1.6,1.3-.7.3-1.5.5-2.4.5Z"></path>
      <path class="cls-3" d="M867.7,592.4c-.7,0-1.3-.1-1.9-.3-.5-.2-.9-.6-1.2-1.1-.3-.5-.4-1.3-.4-2.2v-6.7h-2.1v-1.7h2.1l.3-2.9h1.8v2.9h3.5v1.7h-3.5v6.7c0,.8.2,1.3.5,1.5.3.3.8.4,1.6.4h1.3v1.7h-1.9Z"></path>
      <path class="cls-3" d="M876.9,592.7c-1,0-1.9-.2-2.6-.5s-1.3-.8-1.8-1.4c-.4-.6-.7-1.3-.8-2.1h2.1c0,.4.2.8.5,1.2s.6.6,1,.9c.4.2,1,.3,1.6.3s1,0,1.4-.3c.4-.2.6-.4.8-.7.2-.3.3-.6.3-.9,0-.5-.1-.9-.3-1.1-.2-.3-.6-.5-1-.6-.4-.2-1-.3-1.6-.4-.5,0-1-.2-1.6-.4-.5-.2-1-.4-1.4-.6-.4-.3-.7-.6-.9-1-.2-.4-.3-.9-.3-1.4s.2-1.3.5-1.8c.4-.5.9-1,1.5-1.3s1.4-.5,2.3-.5c1.3,0,2.3.3,3.1.9s1.3,1.5,1.4,2.7h-2c0-.6-.3-1.1-.8-1.4-.4-.3-1-.5-1.8-.5s-1.3.2-1.7.5c-.4.3-.6.7-.6,1.2s.1.6.3.9c.2.2.5.5,1,.6.4.2.9.3,1.6.4.8.1,1.5.3,2.2.6.7.2,1.2.6,1.6,1.1s.6,1.1.6,2-.2,1.4-.6,2c-.4.6-.9,1-1.6,1.3-.7.3-1.5.5-2.4.5Z"></path>
      <path class="cls-3" d="M895.1,595.9c-.9-.8-1.7-1.8-2.4-3-.7-1.1-1.3-2.4-1.8-3.9-.4-1.4-.7-3-.7-4.7s.2-3.2.7-4.7c.4-1.4,1-2.7,1.8-3.9.7-1.2,1.5-2.1,2.4-3h2.1v.2c-1,1-1.8,2-2.6,3.2-.7,1.2-1.3,2.5-1.7,3.8-.4,1.4-.6,2.8-.6,4.3s.2,2.9.6,4.3c.4,1.4,1,2.6,1.7,3.8.7,1.2,1.6,2.3,2.5,3.2v.2h-2.1Z"></path>
      <path class="cls-3" d="M898,592.4l6.2-16.8h2.1l6.2,16.8h-2.1l-5.1-14.3-5.1,14.3h-2.1ZM900.8,588.1l.6-1.6h7.6l.6,1.6h-8.8Z"></path>
      <path class="cls-3" d="M914.9,597.7v-17.4h1.8l.2,2c.3-.4.6-.7,1-1.1.4-.3.9-.6,1.4-.8.6-.2,1.2-.3,1.9-.3,1.2,0,2.2.3,3.1.8.9.6,1.6,1.3,2,2.3s.7,2,.7,3.3-.2,2.3-.7,3.3c-.5,1-1.2,1.7-2.1,2.2-.9.5-1.9.8-3.1.8s-1.8-.2-2.6-.6c-.7-.4-1.3-1-1.7-1.7v7.3h-2ZM921,590.9c.8,0,1.5-.2,2.1-.6.6-.4,1.1-.9,1.4-1.6.3-.7.5-1.5.5-2.4s-.2-1.7-.5-2.4c-.3-.7-.8-1.2-1.4-1.6-.6-.4-1.3-.6-2.1-.6s-1.5.2-2.1.6c-.6.4-1.1.9-1.4,1.6-.3.7-.5,1.5-.5,2.4s.2,1.7.5,2.4.8,1.2,1.4,1.6c.6.4,1.3.6,2.1.6Z"></path>
      <path class="cls-3" d="M929.9,592.4v-12.1h1.8v2.3c.4-.5.8-1,1.2-1.4.4-.4.9-.7,1.5-.9.6-.2,1.3-.3,2.1-.3v2.1h-.7c-.5,0-1,0-1.5.2-.5.1-.9.4-1.2.7-.4.3-.6.7-.8,1.2s-.3,1.2-.3,1.9v6.2h-2Z"></path>
      <path class="cls-3" d="M940,577.7c-.4,0-.7-.1-1-.4-.3-.3-.4-.6-.4-1s.1-.7.4-1c.3-.2.6-.4,1-.4s.7.1,1,.4c.3.2.4.6.4,1s-.1.7-.4,1c-.3.3-.6.4-1,.4ZM939,592.4v-12.1h2v12.1h-2Z"></path>
      <path class="cls-3" d="M944.5,592.4v-17.3h2v17.3h-2Z"></path>
      <path class="cls-3" d="M956.1,592.4v-1.4c1.2-.9,2.2-1.8,3.3-2.7s1.9-1.8,2.7-2.7c.8-.9,1.4-1.8,1.9-2.7s.7-1.7.7-2.5-.1-1.1-.3-1.6c-.2-.5-.5-.9-1-1.2s-1.1-.5-1.8-.5-1.4.2-1.9.5c-.5.3-.9.8-1.1,1.3-.2.5-.4,1.1-.4,1.8h-1.9c0-1.1.3-2.1.7-2.8s1.1-1.4,1.9-1.8c.8-.4,1.7-.6,2.7-.6s1.9.2,2.7.6c.8.4,1.4.9,1.8,1.7.4.7.7,1.7.7,2.8s-.2,1.6-.5,2.4-.8,1.5-1.3,2.3-1.2,1.5-1.8,2.1c-.7.7-1.3,1.3-2,1.9-.7.6-1.3,1.2-2,1.7h8.2v1.7h-11.2Z"></path>
      <path class="cls-3" d="M976.4,592.7c-1.5,0-2.7-.4-3.8-1.1-1.1-.7-1.9-1.7-2.4-3-.6-1.3-.8-2.8-.8-4.5s.3-3.2.8-4.5c.6-1.3,1.4-2.3,2.4-3,1.1-.7,2.3-1.1,3.8-1.1s2.7.4,3.8,1.1c1,.7,1.8,1.7,2.4,3,.6,1.3.9,2.8.9,4.5s-.3,3.2-.9,4.5c-.6,1.3-1.4,2.3-2.4,3-1,.7-2.3,1.1-3.8,1.1ZM976.4,590.9c1,0,1.8-.3,2.6-.8.8-.6,1.3-1.3,1.8-2.4.4-1,.6-2.3.6-3.7s-.2-2.7-.6-3.7c-.4-1-1-1.8-1.8-2.4-.8-.5-1.6-.8-2.6-.8s-1.8.3-2.6.8-1.3,1.3-1.8,2.4c-.4,1-.6,2.3-.6,3.7s.2,2.7.6,3.7c.4,1,1,1.8,1.8,2.4.8.6,1.6.8,2.6.8Z"></path>
      <path class="cls-3" d="M985.9,592.4v-1.4c1.2-.9,2.2-1.8,3.3-2.7s1.9-1.8,2.7-2.7c.8-.9,1.4-1.8,1.9-2.7s.7-1.7.7-2.5-.1-1.1-.3-1.6c-.2-.5-.5-.9-1-1.2s-1.1-.5-1.8-.5-1.4.2-1.9.5c-.5.3-.9.8-1.1,1.3-.2.5-.4,1.1-.4,1.8h-1.9c0-1.1.3-2.1.7-2.8s1.1-1.4,1.9-1.8c.8-.4,1.7-.6,2.7-.6s1.9.2,2.7.6c.8.4,1.4.9,1.8,1.7.4.7.7,1.7.7,2.8s-.2,1.6-.5,2.4-.8,1.5-1.3,2.3-1.2,1.5-1.8,2.1c-.7.7-1.3,1.3-2,1.9-.7.6-1.3,1.2-2,1.7h8.2v1.7h-11.2Z"></path>
      <path class="cls-3" d="M1007.2,592.4v-3.6h-8.5v-1.6l8.2-11.6h2.4v11.4h2.5v1.8h-2.5v3.6h-2ZM1000.9,587h6.4v-9.2l-6.4,9.2Z"></path>
      <path class="cls-3" d="M1015.3,595.9h-2.1v-.2c1-1,1.8-2,2.6-3.2.7-1.2,1.3-2.5,1.7-3.8.4-1.4.6-2.8.6-4.3s-.2-2.9-.6-4.3c-.4-1.4-1-2.6-1.7-3.8-.7-1.2-1.6-2.3-2.6-3.2v-.2h2.1c.9.8,1.7,1.8,2.4,3,.7,1.2,1.3,2.4,1.8,3.9.4,1.4.7,3,.7,4.7s-.2,3.2-.7,4.7c-.4,1.4-1,2.7-1.8,3.9-.7,1.1-1.5,2.1-2.4,3Z"></path>
    </g>
  </g>
  <g id="Vertical">
    <g>
      <path class="cls-3" d="M27.7,183.4h16.8v5.4c0,1.3-.2,2.4-.7,3.2-.4.8-1,1.4-1.8,1.8-.7.4-1.6.6-2.5.6s-1.7-.2-2.5-.6c-.8-.4-1.4-1-1.8-1.9-.4-.8-.7-1.9-.7-3.3v-3.3h-6.9v-2ZM27.7,192.3l7.5-3.7v2.3l-7.5,3.8v-2.4ZM36.3,185.4v3.3c0,1.3.3,2.2.9,2.8s1.4.9,2.4.9,1.8-.3,2.4-.9c.6-.6.9-1.5.9-2.9v-3.2h-6.6Z"></path>
      <path class="cls-3" d="M27.5,204.5c0-1.1.3-2.1.8-3,.5-.9,1.3-1.6,2.2-2.1,1-.5,2.1-.7,3.3-.7s2.4.2,3.3.7c.9.5,1.7,1.2,2.2,2.1.5.9.8,1.9.8,3.1s-.3,2.2-.8,3c-.5.8-1.2,1.5-2.1,1.9-.9.4-1.8.7-2.8.7h-.5c-.2,0-.4,0-.6,0v-9.9h1.6v7.9c1.1,0,2-.4,2.6-1.1.6-.7.9-1.5.9-2.6s-.2-1.3-.5-1.9c-.3-.6-.8-1.1-1.4-1.4-.6-.4-1.3-.5-2.2-.5h-.7c-1,0-1.8.2-2.5.5-.7.4-1.2.8-1.5,1.4-.3.6-.5,1.2-.5,1.9s.2,1.5.6,2.1c.4.6.9.9,1.5,1.2v2c-.7-.2-1.4-.5-1.9-1s-1-1.1-1.4-1.8-.5-1.5-.5-2.5Z"></path>
      <path class="cls-3" d="M22.5,223.7h7.2c-.6-.4-1.2-.9-1.6-1.7-.4-.7-.7-1.6-.7-2.7s.3-2.2.8-3.1c.6-.9,1.3-1.6,2.3-2,1-.5,2-.7,3.3-.7s2.3.2,3.3.7,1.7,1.2,2.3,2.1c.6.9.8,1.9.8,3.1s0,1.3-.3,1.9c-.2.6-.5,1-.8,1.5-.3.4-.7.8-1.2,1l2,.2v1.8h-17.4v-2ZM29.2,219.6c0,.8.2,1.5.6,2.1.4.6.9,1.1,1.6,1.4.7.3,1.5.5,2.4.5s1.7-.2,2.4-.5c.7-.3,1.2-.8,1.6-1.4.4-.6.6-1.3.6-2.1s-.2-1.5-.6-2.1c-.4-.6-.9-1.1-1.6-1.4-.7-.3-1.5-.5-2.4-.5s-1.7.2-2.4.5c-.7.3-1.2.8-1.6,1.4-.4.6-.6,1.3-.6,2.1Z"></path>
      <path class="cls-3" d="M27.5,234.7c0-.9.2-1.7.6-2.4.4-.7.9-1.2,1.7-1.6.8-.4,1.7-.6,2.9-.6h7.2v2h-7c-1.2,0-2.1.3-2.7.8-.6.5-.9,1.3-.9,2.3s.2,1.3.5,1.8c.3.5.8,1,1.4,1.3.6.3,1.4.5,2.3.5h6.5v2h-12.1v-1.8h2.1c-.8-.5-1.3-1-1.8-1.8s-.6-1.5-.6-2.4Z"></path>
      <path class="cls-3" d="M27.5,251.3c0-1.1.3-2.1.8-3,.5-.9,1.3-1.6,2.2-2.1,1-.5,2.1-.7,3.3-.7s2.4.2,3.3.7c.9.5,1.7,1.2,2.2,2.1.5.9.8,1.9.8,3.1s-.3,2.2-.8,3c-.5.8-1.2,1.5-2.1,1.9-.9.4-1.8.7-2.8.7h-.5c-.2,0-.4,0-.6,0v-9.9h1.6v7.9c1.1,0,2-.4,2.6-1.1.6-.7.9-1.5.9-2.6s-.2-1.3-.5-1.9c-.3-.6-.8-1.1-1.4-1.4-.6-.4-1.3-.5-2.2-.5h-.7c-1,0-1.8.2-2.5.5-.7.4-1.2.8-1.5,1.4-.3.6-.5,1.2-.5,1.9s.2,1.5.6,2.1c.4.6.9.9,1.5,1.2v2c-.7-.2-1.4-.5-1.9-1s-1-1.1-1.4-1.8-.5-1.5-.5-2.5Z"></path>
      <path class="cls-3" d="M27.5,266.9c0-1,.2-1.9.5-2.6.3-.7.8-1.3,1.4-1.8.6-.4,1.3-.7,2.1-.8v2.1c-.4,0-.8.2-1.2.5-.4.3-.6.6-.9,1-.2.4-.3,1-.3,1.6s0,1,.3,1.4.4.6.7.8.6.3.9.3c.5,0,.9-.1,1.1-.3.3-.2.5-.6.6-1,.2-.4.3-1,.4-1.6,0-.5.2-1,.4-1.6.2-.5.4-1,.6-1.4.3-.4.6-.7,1-.9s.9-.3,1.4-.3,1.3.2,1.8.5c.5.4,1,.9,1.3,1.5.3.7.5,1.4.5,2.3,0,1.3-.3,2.3-.9,3.1-.6.8-1.5,1.3-2.7,1.4v-2c.6,0,1.1-.3,1.4-.8.3-.4.5-1,.5-1.8s-.2-1.3-.5-1.7c-.3-.4-.7-.6-1.2-.6s-.6.1-.9.3c-.2.2-.5.5-.6,1-.2.4-.3.9-.4,1.6-.1.8-.3,1.5-.6,2.2-.2.7-.6,1.2-1.1,1.6-.5.4-1.1.6-2,.6s-1.4-.2-2-.6-1-.9-1.3-1.6c-.3-.7-.5-1.5-.5-2.4Z"></path>
      <path class="cls-3" d="M27.7,284c0-.7.1-1.3.3-1.9s.6-.9,1.1-1.2c.5-.3,1.3-.4,2.2-.4h6.7v-2.1h1.7v2.1l2.9.3v1.8h-2.9v3.5h-1.7v-3.5h-6.7c-.8,0-1.3.2-1.5.5-.3.3-.4.8-.4,1.6v1.3h-1.7v-1.9Z"></path>
      <path class="cls-3" d="M27.5,298.1c0-1,.2-1.9.5-2.6.3-.7.8-1.3,1.4-1.8.6-.4,1.3-.7,2.1-.8v2.1c-.4,0-.8.2-1.2.5-.4.3-.6.6-.9,1-.2.4-.3,1-.3,1.6s0,1,.3,1.4.4.6.7.8.6.3.9.3c.5,0,.9-.1,1.1-.3.3-.2.5-.6.6-1,.2-.4.3-1,.4-1.6,0-.5.2-1,.4-1.6.2-.5.4-1,.6-1.4.3-.4.6-.7,1-.9s.9-.3,1.4-.3,1.3.2,1.8.5c.5.4,1,.9,1.3,1.5.3.7.5,1.4.5,2.3,0,1.3-.3,2.3-.9,3.1-.6.8-1.5,1.3-2.7,1.4v-2c.6,0,1.1-.3,1.4-.8.3-.4.5-1,.5-1.8s-.2-1.3-.5-1.7c-.3-.4-.7-.6-1.2-.6s-.6.1-.9.3c-.2.2-.5.5-.6,1-.2.4-.3.9-.4,1.6-.1.8-.3,1.5-.6,2.2-.2.7-.6,1.2-1.1,1.6-.5.4-1.1.6-2,.6s-1.4-.2-2-.6-1-.9-1.3-1.6c-.3-.7-.5-1.5-.5-2.4Z"></path>
      <path class="cls-3" d="M25.5,309.5l20.6,6v2l-20.6-6v-2Z"></path>
      <path class="cls-3" d="M27.5,328.6c0-1.2.3-2.2.8-3.1.6-.9,1.3-1.6,2.3-2,1-.5,2-.7,3.3-.7s2.3.2,3.3.7c1,.5,1.7,1.2,2.2,2.1s.8,1.9.8,3.1-.2,1.9-.6,2.6c-.4.7-1,1.3-1.7,1.7h7.2v2h-17.3v-1.8l2-.2c-.4-.3-.8-.6-1.1-1-.3-.4-.6-.9-.8-1.4-.2-.6-.3-1.2-.3-1.9ZM29.2,328.8c0,.8.2,1.5.6,2.1.4.6.9,1.1,1.6,1.4.7.3,1.5.5,2.4.5s1.7-.2,2.4-.5c.7-.3,1.2-.8,1.6-1.4.4-.6.6-1.3.6-2.1s-.2-1.5-.6-2.1c-.4-.6-.9-1.1-1.6-1.4-.7-.3-1.5-.5-2.4-.5s-1.7.2-2.4.5c-.7.3-1.2.8-1.6,1.4-.4.6-.6,1.3-.6,2.1Z"></path>
      <path class="cls-3" d="M27.5,343.8c0-1,.2-1.8.5-2.4s.8-1.1,1.4-1.5c.6-.3,1.2-.5,1.9-.5s1.5.2,2.1.6c.6.4,1,1,1.3,1.8.3.8.4,1.7.4,2.7v3.2c.8,0,1.4-.1,1.9-.3.5-.2.9-.6,1.1-1,.3-.4.4-1,.4-1.6s-.2-1.4-.6-2c-.4-.6-1-.9-1.7-1v-2.1c.9,0,1.6.4,2.2.9s1,1.1,1.3,1.9.5,1.5.5,2.4-.2,2.1-.6,2.8c-.4.7-1,1.3-1.7,1.7-.7.4-1.6.6-2.6.6h-7.5v-1.8h2.1c-.3-.3-.7-.5-.9-.7-.3-.2-.6-.5-.8-.9-.2-.3-.4-.7-.5-1.1-.1-.4-.2-.9-.2-1.5ZM29.2,344.1c0,.6.1,1.1.3,1.5.2.5.6.8,1,1.2.4.3.9.6,1.4.7.5.2,1,.3,1.6.3h0v-3c0-.8,0-1.4-.3-1.9-.2-.5-.4-.8-.8-1-.3-.2-.7-.3-1.1-.3s-.8,0-1.1.3c-.3.2-.6.5-.7.9-.2.4-.3.9-.3,1.4Z"></path>
      <path class="cls-3" d="M22.5,356.6l6.6,3v-.7l10.8-4.8v2.2l-9.2,3.9,9.2,4.1v2.1l-17.4-7.7v-2.1Z"></path>
    </g>
    <g>
      <path class="cls-3" d="M72.1,38.1v-12.1l-2.4.6v-1.2l3-1.3h1.1v14h-1.7Z"></path>
      <path class="cls-3" d="M77.3,38.2c-.3,0-.6-.1-.8-.3s-.3-.5-.3-.8.1-.6.3-.8.5-.3.8-.3.6.1.8.3c.2.2.3.5.3.8s-.1.6-.3.8c-.2.2-.5.3-.8.3Z"></path>
      <path class="cls-3" d="M85.2,38.3c-1,0-1.9-.2-2.6-.6s-1.2-.9-1.7-1.5c-.4-.6-.7-1.4-.9-2.2s-.3-1.6-.3-2.4c0-1.5.2-2.9.6-4.1.4-1.2,1-2.1,1.8-2.7s1.8-1,2.9-1,1.6.2,2.3.5c.6.3,1.1.8,1.5,1.4.4.6.6,1.2.7,1.9h-1.6c-.1-.7-.5-1.3-1-1.7-.5-.4-1.2-.6-2-.6s-1.3.2-1.9.7c-.6.4-1,1.1-1.3,2-.3.9-.5,2-.6,3.4h0c.2-.3.5-.7.9-1,.4-.4.8-.6,1.4-.9.5-.2,1.1-.3,1.8-.3s1.5.2,2.2.6c.7.4,1.3.9,1.7,1.6.4.7.7,1.5.7,2.4s-.2,1.5-.6,2.3-.9,1.3-1.6,1.8c-.7.5-1.6.7-2.6.7ZM85,36.8c.6,0,1.2-.1,1.7-.4.5-.3.9-.6,1.1-1.1.3-.5.4-1,.4-1.6s-.1-1.2-.4-1.6-.7-.8-1.1-1.1c-.5-.3-1-.4-1.7-.4s-1.2.1-1.7.4c-.5.3-.9.7-1.2,1.1-.3.5-.4,1-.4,1.6s.1,1.1.4,1.6c.3.5.7.8,1.2,1.1.5.3,1,.4,1.7.4Z"></path>
      <path class="cls-3" d="M92.7,38.1v-14h2l4.9,9.8,5-9.8h2v14h-1.7v-11l-4.6,9h-1.3l-4.6-9v11h-1.7Z"></path>
    </g>
    <g>
      <path class="cls-3" d="M71.6,99.1v-12.1l-2.4.6v-1.2l3-1.3h1.1v14h-1.7Z"></path>
      <path class="cls-3" d="M76.8,99.2c-.3,0-.6-.1-.8-.3-.2-.2-.3-.5-.3-.8s.1-.6.3-.8c.2-.2.5-.3.8-.3s.6.1.8.3c.2.2.3.5.3.8s-.1.6-.3.8c-.2.2-.5.3-.8.3Z"></path>
      <path class="cls-3" d="M86.6,99.1v-3h-7.1v-1.3l6.8-9.7h2v9.5h2.1v1.5h-2.1v3h-1.7ZM81.4,94.6h5.3v-7.7l-5.3,7.7Z"></path>
      <path class="cls-3" d="M92.4,99.1v-14h2l4.9,9.8,5-9.8h2v14h-1.7v-11l-4.6,9h-1.3l-4.6-9v11h-1.7Z"></path>
    </g>
    <g>
      <path class="cls-3" d="M72.2,160.1v-12.1l-2.4.6v-1.2l3-1.3h1.1v14h-1.7Z"></path>
      <path class="cls-3" d="M77.4,160.2c-.3,0-.6-.1-.8-.3-.2-.2-.3-.5-.3-.8s.1-.6.3-.8c.2-.2.5-.3.8-.3s.6.1.8.3c.2.2.3.5.3.8s-.1.6-.3.8c-.2.2-.5.3-.8.3Z"></path>
      <path class="cls-3" d="M80.7,160.1v-1.2c1-.7,1.9-1.5,2.7-2.3.9-.8,1.6-1.5,2.3-2.3.7-.8,1.2-1.5,1.6-2.2s.6-1.4.6-2.1,0-1-.3-1.4c-.2-.4-.5-.8-.8-1-.4-.3-.9-.4-1.5-.4s-1.1.1-1.6.4c-.4.3-.7.6-.9,1.1-.2.4-.3.9-.3,1.5h-1.6c0-.9.2-1.7.6-2.4.4-.7.9-1.2,1.6-1.5.7-.3,1.4-.5,2.3-.5s1.6.2,2.2.5c.6.3,1.1.8,1.5,1.4s.6,1.4.6,2.3-.1,1.3-.4,2c-.3.7-.6,1.3-1.1,1.9-.5.6-1,1.2-1.5,1.8-.6.6-1.1,1.1-1.7,1.6-.6.5-1.1,1-1.6,1.4h6.8v1.4h-9.3Z"></path>
      <path class="cls-3" d="M92.4,160.1v-14h2l4.9,9.8,5-9.8h2v14h-1.7v-11l-4.6,9h-1.3l-4.6-9v11h-1.7Z"></path>
    </g>
    <g>
      <path class="cls-3" d="M87.7,221.1v-12.1l-2.4.6v-1.2l3-1.3h1.1v14h-1.7Z"></path>
      <path class="cls-3" d="M92.4,221.1v-14h2l4.9,9.8,5-9.8h2v14h-1.7v-11l-4.6,9h-1.3l-4.6-9v11h-1.7Z"></path>
    </g>
    <g>
      <path class="cls-3" d="M64.2,281.3c-.9,0-1.7-.2-2.4-.5-.7-.3-1.3-.8-1.7-1.4-.4-.6-.6-1.3-.6-2.1s.1-1.1.3-1.6c.2-.5.5-.9.9-1.3.4-.4.9-.6,1.4-.8-.7-.3-1.3-.7-1.7-1.2-.4-.6-.6-1.2-.6-1.8s.2-1.3.5-1.9c.4-.6.9-1,1.5-1.3.7-.3,1.5-.5,2.4-.5s1.7.2,2.4.5c.7.3,1.2.8,1.5,1.3.4.6.5,1.2.5,1.9s-.2,1.3-.6,1.8c-.4.6-1,1-1.7,1.2.5.1,1,.4,1.4.8.4.4.7.8.9,1.3.2.5.3,1,.3,1.6s-.2,1.5-.6,2.1c-.4.6-1,1.1-1.7,1.4-.7.3-1.5.5-2.4.5ZM64.2,279.9c1.1,0,1.8-.2,2.4-.7.5-.5.8-1.1.8-1.9s-.3-1.6-.9-2.1c-.6-.5-1.3-.7-2.3-.7s-1.7.2-2.3.7c-.6.5-.9,1.2-.9,2.1s.3,1.4.8,1.9c.5.5,1.3.7,2.3.7ZM64.2,273c.8,0,1.5-.2,2-.7.5-.4.7-1,.7-1.7s-.2-1.4-.7-1.8c-.5-.4-1.2-.6-2-.6s-1.5.2-2,.6c-.5.4-.7,1-.7,1.8s.2,1.3.7,1.7c.5.4,1.2.7,2,.7Z"></path>
      <path class="cls-3" d="M77.1,281.3c-1.2,0-2.3-.3-3.2-.9s-1.6-1.5-2-2.5c-.5-1.1-.7-2.3-.7-3.8s.2-2.7.7-3.8c.5-1.1,1.1-1.9,2-2.5.9-.6,1.9-.9,3.2-.9s2.3.3,3.1.9c.9.6,1.5,1.5,2,2.5s.7,2.3.7,3.8-.2,2.7-.7,3.8-1.1,1.9-2,2.5-1.9.9-3.1.9ZM77.1,279.9c.8,0,1.5-.2,2.1-.7.6-.5,1.1-1.1,1.5-2,.4-.9.5-1.9.5-3.1s-.2-2.2-.5-3.1c-.4-.9-.9-1.5-1.5-2-.6-.5-1.3-.7-2.1-.7s-1.5.2-2.1.7c-.6.5-1.1,1.1-1.5,2-.4.9-.5,1.9-.5,3.1s.2,2.2.5,3.1c.4.9.9,1.5,1.5,2,.6.5,1.3.7,2.1.7Z"></path>
      <path class="cls-3" d="M90.8,281.3c-1.2,0-2.3-.3-3.2-.9s-1.6-1.5-2-2.5c-.5-1.1-.7-2.3-.7-3.8s.2-2.7.7-3.8c.5-1.1,1.1-1.9,2-2.5.9-.6,1.9-.9,3.2-.9s2.3.3,3.1.9c.9.6,1.5,1.5,2,2.5s.7,2.3.7,3.8-.2,2.7-.7,3.8-1.1,1.9-2,2.5-1.9.9-3.1.9ZM90.8,279.9c.8,0,1.5-.2,2.1-.7.6-.5,1.1-1.1,1.5-2,.4-.9.5-1.9.5-3.1s-.2-2.2-.5-3.1c-.4-.9-.9-1.5-1.5-2-.6-.5-1.3-.7-2.1-.7s-1.5.2-2.1.7c-.6.5-1.1,1.1-1.5,2-.4.9-.5,1.9-.5,3.1s.2,2.2.5,3.1c.4.9.9,1.5,1.5,2,.6.5,1.3.7,2.1.7Z"></path>
      <path class="cls-3" d="M99,281.1v-14.4h1.7v14.4h-1.7ZM105.2,281.1l-4.8-5.5,4.4-4.6h2.1l-5,5.2v-1.2s5.5,6.1,5.5,6.1h-2.1Z"></path>
    </g>
    <g>
      <path class="cls-3" d="M64.2,341.3c-1,0-1.9-.2-2.6-.6s-1.2-.9-1.7-1.5c-.4-.6-.7-1.4-.9-2.2-.2-.8-.3-1.6-.3-2.4,0-1.5.2-2.9.6-4.1.4-1.2,1-2.1,1.8-2.7s1.8-1,2.9-1,1.6.2,2.3.5c.6.3,1.1.8,1.5,1.4.4.6.6,1.2.7,1.9h-1.6c-.1-.7-.5-1.3-1-1.7-.5-.4-1.2-.6-2-.6s-1.3.2-1.9.7-1,1.1-1.3,2c-.3.9-.5,2-.6,3.4h0c.2-.3.5-.7.9-1,.4-.4.8-.6,1.4-.9.5-.2,1.1-.3,1.8-.3s1.5.2,2.2.6c.7.4,1.3.9,1.7,1.6.4.7.6,1.5.6,2.4s-.2,1.5-.6,2.3-.9,1.3-1.6,1.8c-.7.5-1.6.7-2.6.7ZM64.1,339.8c.6,0,1.2-.1,1.6-.4.5-.3.9-.6,1.1-1.1.3-.5.4-1,.4-1.6s-.1-1.2-.4-1.6c-.3-.5-.7-.8-1.1-1.1-.5-.3-1-.4-1.6-.4s-1.2.1-1.7.4c-.5.3-.9.7-1.2,1.1-.3.5-.4,1-.4,1.6s.1,1.1.4,1.6c.3.5.7.8,1.2,1.1.5.3,1,.4,1.7.4Z"></path>
      <path class="cls-3" d="M77.1,341.3c-1.2,0-2.3-.3-3.2-.9s-1.6-1.5-2-2.5c-.5-1.1-.7-2.3-.7-3.8s.2-2.7.7-3.8c.5-1.1,1.1-1.9,2-2.5.9-.6,1.9-.9,3.2-.9s2.3.3,3.1.9c.9.6,1.5,1.5,2,2.5s.7,2.3.7,3.8-.2,2.7-.7,3.8-1.1,1.9-2,2.5-1.9.9-3.1.9ZM77.1,339.8c.8,0,1.5-.2,2.1-.7.6-.5,1.1-1.1,1.5-2,.4-.9.5-1.9.5-3.1s-.2-2.2-.5-3.1c-.4-.9-.9-1.5-1.5-2-.6-.5-1.3-.7-2.1-.7s-1.5.2-2.1.7c-.6.5-1.1,1.1-1.5,2-.4.9-.5,1.9-.5,3.1s.2,2.2.5,3.1c.4.9.9,1.5,1.5,2,.6.5,1.3.7,2.1.7Z"></path>
      <path class="cls-3" d="M90.8,341.3c-1.2,0-2.3-.3-3.2-.9s-1.6-1.5-2-2.5c-.5-1.1-.7-2.3-.7-3.8s.2-2.7.7-3.8c.5-1.1,1.1-1.9,2-2.5.9-.6,1.9-.9,3.2-.9s2.3.3,3.1.9c.9.6,1.5,1.5,2,2.5s.7,2.3.7,3.8-.2,2.7-.7,3.8-1.1,1.9-2,2.5-1.9.9-3.1.9ZM90.8,339.8c.8,0,1.5-.2,2.1-.7.6-.5,1.1-1.1,1.5-2,.4-.9.5-1.9.5-3.1s-.2-2.2-.5-3.1c-.4-.9-.9-1.5-1.5-2-.6-.5-1.3-.7-2.1-.7s-1.5.2-2.1.7c-.6.5-1.1,1.1-1.5,2-.4.9-.5,1.9-.5,3.1s.2,2.2.5,3.1c.4.9.9,1.5,1.5,2,.6.5,1.3.7,2.1.7Z"></path>
      <path class="cls-3" d="M99,341.1v-14.4h1.7v14.4h-1.7ZM105.2,341.1l-4.8-5.5,4.4-4.6h2.1l-5,5.2v-1.2s5.5,6.1,5.5,6.1h-2.1Z"></path>
    </g>
    <g>
      <path class="cls-3" d="M66.6,404.1v-3h-7.1v-1.3l6.8-9.7h2v9.5h2.1v1.5h-2.1v3h-1.7ZM61.4,399.6h5.3v-7.7l-5.3,7.7Z"></path>
      <path class="cls-3" d="M77.8,404.3c-1.2,0-2.3-.3-3.2-.9s-1.6-1.5-2-2.5-.7-2.3-.7-3.8.2-2.7.7-3.8,1.1-1.9,2-2.5c.9-.6,1.9-.9,3.2-.9s2.3.3,3.1.9c.9.6,1.5,1.5,2,2.5.5,1.1.7,2.3.7,3.8s-.2,2.7-.7,3.8c-.5,1.1-1.1,1.9-2,2.5-.9.6-1.9.9-3.1.9ZM77.7,402.8c.8,0,1.5-.2,2.1-.7.6-.5,1.1-1.1,1.5-2,.4-.9.5-1.9.5-3.1s-.2-2.2-.5-3.1c-.4-.9-.9-1.5-1.5-2-.6-.5-1.3-.7-2.1-.7s-1.5.2-2.1.7-1.1,1.1-1.5,2c-.4.9-.5,1.9-.5,3.1s.2,2.2.5,3.1c.4.9.9,1.5,1.5,2s1.3.7,2.1.7Z"></path>
      <path class="cls-3" d="M91.4,404.3c-1.2,0-2.3-.3-3.2-.9s-1.6-1.5-2-2.5-.7-2.3-.7-3.8.2-2.7.7-3.8,1.1-1.9,2-2.5c.9-.6,1.9-.9,3.2-.9s2.3.3,3.1.9c.9.6,1.5,1.5,2,2.5.5,1.1.7,2.3.7,3.8s-.2,2.7-.7,3.8c-.5,1.1-1.1,1.9-2,2.5-.9.6-1.9.9-3.1.9ZM91.4,402.8c.8,0,1.5-.2,2.1-.7.6-.5,1.1-1.1,1.5-2,.4-.9.5-1.9.5-3.1s-.2-2.2-.5-3.1c-.4-.9-.9-1.5-1.5-2-.6-.5-1.3-.7-2.1-.7s-1.5.2-2.1.7-1.1,1.1-1.5,2c-.4.9-.5,1.9-.5,3.1s.2,2.2.5,3.1c.4.9.9,1.5,1.5,2s1.3.7,2.1.7Z"></path>
      <path class="cls-3" d="M99.7,404.1v-14.4h1.7v14.4h-1.7ZM105.9,404.1l-4.8-5.5,4.4-4.6h2.1l-5,5.2v-1.2s5.5,6.1,5.5,6.1h-2.1Z"></path>
    </g>
    <g>
      <path class="cls-3" d="M60.2,465.1v-1.2c1-.7,1.9-1.5,2.7-2.3.9-.8,1.6-1.5,2.3-2.3.7-.8,1.2-1.5,1.6-2.2s.6-1.4.6-2.1,0-1-.3-1.4c-.2-.4-.5-.8-.8-1-.4-.3-.9-.4-1.5-.4s-1.1.1-1.6.4c-.4.3-.7.6-.9,1.1-.2.4-.3.9-.3,1.5h-1.6c0-.9.2-1.7.6-2.4.4-.7.9-1.2,1.6-1.5.7-.3,1.4-.5,2.3-.5s1.6.2,2.2.5c.6.3,1.1.8,1.5,1.4s.6,1.4.6,2.3-.1,1.3-.4,2c-.3.7-.6,1.3-1.1,1.9-.5.6-1,1.2-1.5,1.8-.6.6-1.1,1.1-1.7,1.6-.6.5-1.1,1-1.6,1.4h6.8v1.4h-9.3Z"></path>
      <path class="cls-3" d="M77.1,465.3c-1.2,0-2.3-.3-3.2-.9s-1.6-1.5-2-2.5c-.5-1.1-.7-2.3-.7-3.8s.2-2.7.7-3.8c.5-1.1,1.1-1.9,2-2.5.9-.6,1.9-.9,3.2-.9s2.3.3,3.1.9c.9.6,1.5,1.5,2,2.5s.7,2.3.7,3.8-.2,2.7-.7,3.8-1.1,1.9-2,2.5-1.9.9-3.1.9ZM77.1,463.8c.8,0,1.5-.2,2.1-.7.6-.5,1.1-1.1,1.5-2,.4-.9.5-1.9.5-3.1s-.2-2.2-.5-3.1c-.4-.9-.9-1.5-1.5-2-.6-.5-1.3-.7-2.1-.7s-1.5.2-2.1.7c-.6.5-1.1,1.1-1.5,2-.4.9-.5,1.9-.5,3.1s.2,2.2.5,3.1c.4.9.9,1.5,1.5,2,.6.5,1.3.7,2.1.7Z"></path>
      <path class="cls-3" d="M90.8,465.3c-1.2,0-2.3-.3-3.2-.9s-1.6-1.5-2-2.5c-.5-1.1-.7-2.3-.7-3.8s.2-2.7.7-3.8c.5-1.1,1.1-1.9,2-2.5.9-.6,1.9-.9,3.2-.9s2.3.3,3.1.9c.9.6,1.5,1.5,2,2.5s.7,2.3.7,3.8-.2,2.7-.7,3.8-1.1,1.9-2,2.5-1.9.9-3.1.9ZM90.8,463.8c.8,0,1.5-.2,2.1-.7.6-.5,1.1-1.1,1.5-2,.4-.9.5-1.9.5-3.1s-.2-2.2-.5-3.1c-.4-.9-.9-1.5-1.5-2-.6-.5-1.3-.7-2.1-.7s-1.5.2-2.1.7c-.6.5-1.1,1.1-1.5,2-.4.9-.5,1.9-.5,3.1s.2,2.2.5,3.1c.4.9.9,1.5,1.5,2,.6.5,1.3.7,2.1.7Z"></path>
      <path class="cls-3" d="M99,465.1v-14.4h1.7v14.4h-1.7ZM105.2,465.1l-4.8-5.5,4.4-4.6h2.1l-5,5.2v-1.2s5.5,6.1,5.5,6.1h-2.1Z"></path>
    </g>
    <path class="cls-3" d="M100.7,525.6c-1.2,0-2.3-.3-3.2-.9s-1.6-1.5-2-2.5c-.5-1.1-.7-2.3-.7-3.8s.2-2.7.7-3.8c.5-1.1,1.1-1.9,2-2.5.9-.6,1.9-.9,3.2-.9s2.3.3,3.1.9c.9.6,1.5,1.5,2,2.5s.7,2.3.7,3.8-.2,2.7-.7,3.8-1.1,1.9-2,2.5-1.9.9-3.1.9ZM100.6,524.2c.8,0,1.5-.2,2.1-.7.6-.5,1.1-1.1,1.5-2,.4-.9.5-1.9.5-3.1s-.2-2.2-.5-3.1c-.4-.9-.9-1.5-1.5-2-.6-.5-1.3-.7-2.1-.7s-1.5.2-2.1.7c-.6.5-1.1,1.1-1.5,2-.4.9-.5,1.9-.5,3.1s.2,2.2.5,3.1c.4.9.9,1.5,1.5,2,.6.5,1.3.7,2.1.7Z"></path>
  </g>
  <g id="Line">
    <polyline class="cls-2" points="129.6 357.9 187 310.2 240.8 299.6 297.3 244 354.7 267.8 407.7 341.1 464.2 342.9 519.8 185.7 575.4 116 686.7 85.1 742.3 123.9 797 214 851.8 199 908.3 114.2 963.9 132.8 1020.4 133.6 1075.1 137.2 1130.8 131 1185.5 215.8 1242 210.5 1296.7 106.3 1352.4 127.5 1407.1 163.7 1463.6 156.6 1518.3 167.2"></polyline>
  </g>
  <metadata></metadata>
</svg>
