<?xml version="1.0" encoding="UTF-8" standalone="no"?>
<svg xmlns:inkscape="http://www.inkscape.org/namespaces/inkscape" xmlns:sodipodi="http://sodipodi.sourceforge.net/DTD/sodipodi-0.dtd" xmlns="http://www.w3.org/2000/svg" xmlns:svg="http://www.w3.org/2000/svg" width="677.91803" height="102.35401" viewBox="0 0 677.91803 102.35401" fill="none" version="1.1" id="svg204" sodipodi:docname="New Intel Granulate logo.svg" inkscape:version="1.2.2 (b0a84865, 2022-12-01)">
  <defs id="defs208"></defs>
  <g id="g446" transform="translate(0,-2.50799)">
    <path d="m 311.364,40.5327 c -7.873,0 -14.44,2.71 -19.745,8.0881 -5.304,5.4199 -7.914,12.1322 -7.914,20.1786 0,8.0464 2.568,14.9672 7.746,20.3871 5.178,5.4198 11.535,8.0881 19.113,8.0881 7.199,0 13.051,-2.0429 17.555,-6.1286 4.505,-4.0858 6.988,-9.6307 7.536,-16.6349 h -26.48 v -7.2543 h 34.394 c 0.085,0.6671 0.127,1.3759 0.211,2.1263 0.084,0.7505 0.084,1.4592 0.084,2.1263 0,10.0059 -3.073,18.094 -9.262,24.1809 -6.188,6.1287 -14.313,9.1717 -24.417,9.1717 -10.104,0 -18.523,-3.418 -25.175,-10.214 -6.694,-6.7957 -10.02,-15.3424 -10.02,-25.6401 0,-10.2978 3.495,-18.8445 10.441,-25.7235 6.988,-6.8791 15.661,-10.2978 26.017,-10.2978 6.231,0 11.872,1.3758 17.008,4.1691 5.136,2.7934 9.22,6.7123 12.251,11.7153 l -6.357,4.5026 c -2.779,-4.2525 -6.105,-7.4627 -9.978,-9.6306 -3.873,-2.168 -8.209,-3.252 -13.05,-3.252 z" fill="#00377c" id="path182"></path>
    <path d="m 351.694,55.8334 h 7.915 v 6.0036 c 1.473,-2.0846 3.326,-3.6689 5.641,-4.7111 2.316,-1.0423 5.052,-1.5843 8.209,-1.5843 h 4.379 v 7.5461 h -4.463 c -4.546,0 -7.999,1.1674 -10.272,3.5438 -2.273,2.3764 -3.41,5.9201 -3.41,10.7146 v 25.9319 h -8.041 V 55.8751 Z" fill="#00377c" id="path184"></path>
    <path d="m 423.136,103.236 h -7.83 v -7.7542 c -1.937,2.7517 -4.505,4.8782 -7.789,6.4202 -3.283,1.543 -6.778,2.293 -10.566,2.293 -5.305,0 -9.599,-1.334 -12.883,-3.96 -3.325,-2.6686 -4.967,-6.129 -4.967,-10.4649 0,-4.7945 1.852,-8.3799 5.557,-10.8397 3.704,-2.4598 9.177,-3.6688 16.46,-3.6688 h 14.061 c -0.084,-4.461 -1.221,-7.8797 -3.536,-10.2978 -2.273,-2.4181 -5.557,-3.6271 -9.767,-3.6271 -2.526,0 -5.01,0.542 -7.451,1.5842 -2.442,1.0423 -4.842,2.6683 -7.241,4.7946 l -4.252,-5.2948 c 2.778,-2.6266 5.809,-4.5861 9.135,-5.9202 3.284,-1.3341 6.82,-2.0012 10.609,-2.0012 6.399,0 11.409,1.8761 15.029,5.6283 3.621,3.7522 5.389,8.9637 5.389,15.5509 v 27.5995 z m -7.915,-21.8041 h -13.976 c -4.842,0 -8.378,0.667 -10.693,1.9595 -2.316,1.2924 -3.453,3.377 -3.453,6.1703 0,2.3764 1.011,4.3359 3.032,5.8785 2.02,1.5842 4.588,2.3764 7.788,2.3764 4.757,0 8.756,-1.5009 12.04,-4.5444 3.284,-3.0435 5.052,-7.0041 5.305,-11.8403 z" fill="#00377c" id="path186"></path>
    <path d="m 432.145,55.8334 h 7.915 v 7.3794 c 1.894,-2.7516 4.336,-4.8779 7.283,-6.3371 2.947,-1.4592 6.23,-2.2096 9.851,-2.2096 6.357,0 11.282,2.0429 14.861,6.0869 3.578,4.0441 5.346,9.6307 5.346,16.6765 V 103.236 H 469.36 V 77.9298 c 0,-4.9612 -1.22,-8.8802 -3.704,-11.7986 -2.484,-2.8767 -5.936,-4.3359 -10.357,-4.3359 -4.42,0 -8.209,1.5426 -10.987,4.6277 -2.779,3.0852 -4.168,7.0875 -4.168,11.9654 v 24.8476 h -8.041 V 55.8334 Z" fill="#00377c" id="path188"></path>
    <path d="m 530.909,103.236 h -8.041 v -7.2539 c -1.937,2.7517 -4.336,4.8359 -7.241,6.2539 -2.905,1.417 -6.231,2.126 -9.893,2.126 -6.273,0 -11.199,-2.043 -14.819,-6.0868 -3.62,-4.0441 -5.389,-9.589 -5.389,-16.5932 V 55.8751 h 8.125 v 25.3066 c 0,4.9613 1.221,8.8803 3.705,11.7987 2.484,2.8767 5.936,4.3359 10.356,4.3359 4.421,0 8.125,-1.5426 10.904,-4.6278 2.779,-3.0851 4.168,-7.0875 4.168,-11.9654 v -24.848 h 8.125 v 47.4029 z" fill="#00377c" id="path190"></path>
    <path d="m 540.634,34.5292 h 8.125 v 68.7068 h -8.125 z" fill="#00377c" id="path192"></path>
    <path d="m 599.446,103.236 h -7.831 v -7.7542 c -1.936,2.7517 -4.504,4.8782 -7.788,6.4202 -3.284,1.543 -6.778,2.293 -10.567,2.293 -5.304,0 -9.598,-1.334 -12.882,-3.96 -3.326,-2.6686 -4.968,-6.129 -4.968,-10.4649 0,-4.7945 1.853,-8.3799 5.557,-10.8397 3.705,-2.4598 9.178,-3.6688 16.461,-3.6688 h 14.061 c -0.084,-4.461 -1.221,-7.8797 -3.536,-10.2978 -2.274,-2.4181 -5.515,-3.6271 -9.767,-3.6271 -2.526,0 -5.01,0.542 -7.452,1.5842 -2.441,1.0423 -4.841,2.6683 -7.241,4.7946 l -4.252,-5.2948 c 2.779,-2.6266 5.81,-4.5861 9.136,-5.9202 3.283,-1.3341 6.82,-2.0012 10.609,-2.0012 6.399,0 11.408,1.8761 15.029,5.6283 3.62,3.7522 5.389,8.9637 5.389,15.5509 v 27.5995 z m -7.915,-21.8041 h -13.977 c -4.841,0 -8.377,0.667 -10.693,1.9595 -2.315,1.2924 -3.452,3.377 -3.452,6.1703 0,2.3764 1.01,4.3359 3.031,5.8785 2.021,1.5842 4.589,2.3764 7.788,2.3764 4.758,0 8.757,-1.5009 12.041,-4.5444 3.283,-3.0435 5.052,-7.0041 5.304,-11.8403 z" fill="#00377c" id="path194"></path>
    <path d="M 608.497,90.5623 V 41.2832 h 8.041 v 14.5085 h 11.114 v 7.0876 h -11.114 v 27.0159 c 0,2.0846 0.463,3.6689 1.431,4.6694 0.968,1.0006 2.442,1.5009 4.42,1.5009 h 5.263 v 7.1705 h -6.441 c -4.421,0 -7.662,-1 -9.683,-3.043 -2.021,-2.0429 -3.031,-5.2531 -3.031,-9.6307 z" fill="#00377c" id="path196"></path>
    <path d="m 655.311,97.9416 c 3.157,0 6.104,-0.667 8.756,-2.0011 2.695,-1.3342 5.136,-3.377 7.368,-6.1287 l 4.841,4.4193 c -2.694,3.5438 -5.894,6.1699 -9.514,7.9209 -3.621,1.751 -7.704,2.585 -12.209,2.585 -7.199,0 -13.093,-2.334 -17.682,-7.0038 -4.588,-4.6694 -6.904,-10.673 -6.904,-18.0107 0,-7.3376 2.358,-13.091 7.031,-17.8855 4.673,-4.7945 10.482,-7.1709 17.344,-7.1709 6.863,0 12.672,2.2513 17.05,6.754 4.379,4.5026 6.526,10.4228 6.526,17.6771 0,0.542 0,1.1256 -0.084,1.8344 -0.085,0.667 -0.127,1.209 -0.211,1.5009 h -39.362 c 0.547,4.6277 2.357,8.3799 5.515,11.2566 3.157,2.835 6.946,4.2525 11.451,4.2525 z m -0.8,-36.5215 c -4.168,0 -7.746,1.3341 -10.693,4.044 -2.989,2.6683 -4.799,6.2954 -5.473,10.7981 h 31.532 c -0.589,-4.5861 -2.273,-8.2132 -5.052,-10.8398 -2.778,-2.6265 -6.231,-3.9606 -10.314,-3.9606 z" fill="#00377c" id="path198"></path>
    <path d="M 19.2812,3.88413 H 0 V 22.9787 h 19.2812 z" fill="#00c7fd" id="path200"></path>
    <path d="M 18.7765,34.5686 H 0.505676 V 103.276 H 18.7765 Z M 139.937,103.985 V 87.1413 c -2.695,0 -4.926,-0.1668 -6.61,-0.4169 -1.894,-0.2918 -3.326,-0.9172 -4.294,-1.8761 -0.968,-0.9589 -1.6,-2.3347 -1.894,-4.1274 -0.295,-1.7094 -0.421,-3.919 -0.421,-6.629 V 50.0778 h 13.219 V 34.6103 H 126.718 V 7.80279 H 108.447 V 74.217 c 0,5.5866 0.505,10.3811 1.473,14.175 0.969,3.7523 2.61,6.8374 4.884,9.1304 2.273,2.2931 5.262,3.9606 8.925,4.9616 3.704,1 8.377,1.501 13.934,1.501 h 2.316 z M 244.721,2.50799 H 226.45 V 103.276 h 18.271 z M 90.8075,41.3643 c -5.0518,-5.4199 -12.2086,-8.1715 -21.2598,-8.1715 -4.3783,0 -8.3777,0.8755 -11.9982,2.6265 -3.5784,1.7511 -6.6516,4.2109 -9.0933,7.3377 l -1.0104,1.2507 V 43.2821 34.5686 H 29.4275 v 68.7074 h 18.1867 v -36.6051 2.5432 c 0,-0.417 0,-0.8339 0,-1.2508 0.1684,-6.4204 1.8102,-11.2149 4.8414,-14.2584 3.1995,-3.2519 7.1146,-4.8779 11.6192,-4.8779 5.2624,0 9.3038,1.5843 11.9561,4.7528 2.6101,3.0852 3.9572,7.5461 3.9572,13.1745 v 0.125 36.3547 H 98.4274 V 64.2111 c 0,-9.7975 -2.568,-17.5103 -7.662,-22.9302 M 216.851,68.7138 c 0,-4.9196 -0.884,-9.589 -2.652,-13.8832 -1.768,-4.2942 -4.21,-8.0881 -7.367,-11.3401 -3.116,-3.2519 -6.947,-5.7951 -11.325,-7.6295 -4.378,-1.8344 -9.262,-2.7516 -14.524,-2.7516 -4.968,0 -9.725,0.9589 -14.103,2.835 -4.378,1.8761 -8.251,4.461 -11.451,7.6295 -3.241,3.2102 -5.809,7.0041 -7.704,11.34 -1.894,4.3359 -2.863,9.0054 -2.863,13.9666 0,4.9613 0.927,9.6307 2.695,13.9666 1.81,4.3359 4.336,8.1715 7.493,11.34 3.158,3.2103 7.073,5.7534 11.577,7.6299 4.505,1.876 9.515,2.835 14.861,2.835 15.451,0 25.091,-6.9628 30.859,-13.4666 l -13.135,-9.9226 c -2.779,3.252 -9.346,7.6712 -17.555,7.6712 -5.136,0 -9.388,-1.1673 -12.63,-3.502 -3.242,-2.3348 -5.431,-5.545 -6.609,-9.5473 l -0.169,-0.6254 h 54.518 v -6.4622 z m -54.349,-6.2954 c 0,-5.0447 5.809,-13.7998 18.397,-13.8415 12.587,0 18.397,8.7968 18.397,13.7998 H 162.46 Z" fill="#00377c" id="path202"></path>
  </g>
</svg>
