<?xml version="1.0" encoding="UTF-8" standalone="no"?>
<svg
   viewBox="0 0 499.99999 179.69023"
   version="1.1"
   id="svg19"
   sodipodi:docname="sysdig-logo.svg"
   inkscape:version="1.1.1 (3bf5ae0d25, 2021-09-20)"
   width="500"
   height="179.69023"
   xmlns:inkscape="http://www.inkscape.org/namespaces/inkscape"
   xmlns:sodipodi="http://sodipodi.sourceforge.net/DTD/sodipodi-0.dtd"
   xmlns="http://www.w3.org/2000/svg"
   xmlns:svg="http://www.w3.org/2000/svg">
  <sodipodi:namedview
     id="namedview21"
     pagecolor="#ffffff"
     bordercolor="#666666"
     borderopacity="1.0"
     inkscape:pageshadow="2"
     inkscape:pageopacity="0.0"
     inkscape:pagecheckerboard="0"
     showgrid="false"
     inkscape:zoom="2.7120725"
     inkscape:cx="150.99154"
     inkscape:cy="70.057124"
     inkscape:window-width="1920"
     inkscape:window-height="1010"
     inkscape:window-x="-6"
     inkscape:window-y="-6"
     inkscape:window-maximized="1"
     inkscape:current-layer="svg19"
     fit-margin-top="0"
     fit-margin-left="0"
     fit-margin-right="0"
     fit-margin-bottom="0" />
  <defs
     id="defs2" />
  <defs
     id="defs6">
    <style
       id="style4">
      .f04ca906-1e69-4f27-8621-a7ab0851ca11{fill:#55565b}.e330b834-161b-487c-bb13-8bca561e66de{fill:#00abc7}
    </style>
  </defs>
  <g
     id="g832"
     transform="matrix(2.1704129,0,0,2.1704129,-0.02407525,-0.04017099)">
    <path
       d="m 98.358,65.7388 a 8.0948,8.0948 0 0 1 -3.0874,6.8551 12.1315,12.1315 0 0 1 -7.6405,2.1979 18.9877,18.9877 0 0 1 -12.0357,-4.2388 l 3.4013,-5.2332 q 4.6045,3.3496 8.8439,3.3492 3.3484,0 3.3491,-2.0931 v -0.1048 q 0,-1.1501 -1.7271,-1.9362 -0.6278,-0.2608 -4.0815,-1.3082 -8.3732,-2.459 -8.3728,-8.425 V 54.697 a 8.0519,8.0519 0 0 1 3.035,-6.5939 11.065,11.065 0 0 1 7.2214,-2.3026 18.3587,18.3587 0 0 1 10.4663,3.2448 l -3.0353,5.4944 q -4.4486,-2.6156 -7.588,-2.6164 -2.931,0 -2.9305,1.9362 v 0.1048 q 0,1.0475 1.7271,1.884 0.6795,0.3136 3.9772,1.465 a 20.2606,20.2606 0 0 1 5.7038,2.7212 6.8434,6.8434 0 0 1 2.7738,5.5995 z m 19.3426,9.2099 q -1.6225,4.3431 -3.6107,6.0706 a 8.3615,8.3615 0 0 1 -5.5992,1.779 13.7213,13.7213 0 0 1 -7.0646,-1.9363 l 2.669,-5.756 a 6.6964,6.6964 0 0 0 3.4013,1.0987 2.919,2.919 0 0 0 2.7736,-1.8315 L 99.2805,46.2195 h 8.4253 l 6.384,19.1003 6.1229,-19.1003 h 8.268 z m 33.1888,-9.2099 a 8.0948,8.0948 0 0 1 -3.0874,6.8551 12.1315,12.1315 0 0 1 -7.6405,2.1979 18.9877,18.9877 0 0 1 -12.0358,-4.2388 l 3.4013,-5.2332 q 4.6046,3.3496 8.844,3.3492 3.3483,0 3.349,-2.0931 v -0.1048 q 0,-1.1501 -1.727,-1.9362 -0.6279,-0.2608 -4.0815,-1.3082 -8.3732,-2.459 -8.3728,-8.425 V 54.697 a 8.0519,8.0519 0 0 1 3.0349,-6.5939 11.065,11.065 0 0 1 7.2215,-2.3026 18.3587,18.3587 0 0 1 10.4663,3.2448 l -3.0353,5.4944 q -4.4486,-2.6156 -7.5879,-2.6164 -2.931,0 -2.9306,1.9362 v 0.1048 q 0,1.0475 1.7272,1.884 0.6794,0.3136 3.977,1.465 a 20.2606,20.2606 0 0 1 5.704,2.7212 6.8434,6.8434 0 0 1 2.7736,5.5995 z m 24.2709,8.5297 V 71.809 a 12.6497,12.6497 0 0 1 -8.7392,2.9828 11.8537,11.8537 0 0 1 -8.8439,-3.7155 q -3.9246,-4.0817 -3.9246,-10.7802 v -0.1047 q 0,-6.6979 3.8724,-10.7797 a 11.9161,11.9161 0 0 1 8.8961,-3.7155 14.207,14.207 0 0 1 8.7392,2.6164 V 36.0673 h 7.9543 v 38.2012 z m 0.1047,-14.077 a 8.0298,8.0298 0 0 0 -1.9883,-5.5992 6.2229,6.2229 0 0 0 -4.8146,-2.1457 6.2914,6.2914 0 0 0 -4.8143,2.0931 7.9768,7.9768 0 0 0 -2.0409,5.6517 v 0.1047 a 7.9042,7.9042 0 0 0 2.041,5.5996 6.474,6.474 0 0 0 9.6288,0 8.0295,8.0295 0 0 0 1.9883,-5.5995 z M 187.9292,43.132 v -7.0647 h 8.3728 v 7.0647 z m 0.209,31.1365 v -28.049 h 7.9543 v 28.049 z m 42.2438,-6.3319 q 0,7.7981 -3.9246,11.3556 -3.768,3.4538 -11.7223,3.4538 A 26.1327,26.1327 0 0 1 202.333,79.8155 l 2.7211,-6.4888 a 19.0496,19.0496 0 0 0 9.472,2.5642 q 8.0062,0 8.0064,-6.594 v -0.3137 a 14.2981,14.2981 0 0 1 -9.1577,2.9827 11.985,11.985 0 0 1 -8.687,-3.4013 12.889,12.889 0 0 1 -3.7678,-9.6814 v -0.1047 a 12.7953,12.7953 0 0 1 3.8202,-9.681 11.921,11.921 0 0 1 8.6345,-3.4013 15.629,15.629 0 0 1 9.053,2.6164 v -2.0931 h 7.9543 z m -7.8495,-9.1581 a 6.057,6.057 0 0 0 -1.9884,-4.6573 7.382,7.382 0 0 0 -9.7336,0 6.1324,6.1324 0 0 0 -1.9362,4.6573 v 0.1047 a 6.1925,6.1925 0 0 0 1.9362,4.7099 6.913,6.913 0 0 0 4.8668,1.7793 6.8031,6.8031 0 0 0 4.8668,-1.8315 6.0562,6.0562 0 0 0 1.9884,-4.6577 z"
       class="f04ca906-1e69-4f27-8621-a7ab0851ca11"
       id="path8" />
    <g
       id="g16"
       style="fill:#00abc7;fill-opacity:1">
      <path
         d="M 42.2368,74.1364 A 19.9025,19.9025 0 0 1 24.5753,63.825 C 23.0203,61.1318 19.011,53.992 18.8091,53.6297 a 2.7022016,2.7022016 0 0 1 4.7213,-2.63 c 0.0492,0.0884 4.191,7.4655 5.7254,10.123 3.8055,6.5916 10.775,9.1096 18.644,6.731 a 2.7023104,2.7023104 0 0 1 1.5626,5.1738 24.9965,24.9965 0 0 1 -7.2256,1.109 z"
         class="e330b834-161b-487c-bb13-8bca561e66de"
         id="path10"
         style="fill:#00abc7;fill-opacity:1" />
      <path
         d="m 42.8229,82.7084 c -10.302,0 -19.9175,-4.8207 -24.7557,-13.2009 L 7.009,50.3545 a 2.702,2.702 0 0 1 0.9889,-3.6911 l 7.5322,-4.3488 a 2.7022,2.7022 0 1 1 2.7023,4.6802 l -5.1921,2.9975 9.707,16.8129 c 5.2621,9.1142 17.7731,12.9147 29.2563,8.9515 9.1733,-7.9626 12.138,-20.6984 6.8763,-29.8126 l -9.2921,-16.094 a 2.7022,2.7022 0 1 1 4.6801,-2.7023 l 9.2921,16.094 c 6.6237,11.4725 2.993,27.3639 -8.4449,36.9642 a 2.6977,2.6977 0 0 1 -0.8137,0.4697 33.5903,33.5903 0 0 1 -11.4786,2.0327 z m 10.5549,-4.572 z"
         class="e330b834-161b-487c-bb13-8bca561e66de"
         id="path12"
         style="fill:#00abc7;fill-opacity:1" />
      <path
         d="m 42.0111,65.3744 c -4.268,0 -7.8857,-2.8418 -9.723,-6.024 L 0.3627,4.0536 A 2.7022,2.7022 0 0 1 5.0428,1.3513 L 36.9683,56.648 c 0.8708,1.5077 3.3393,4.095 6.445,3.0928 a 2.7023169,2.7023169 0 0 1 1.6578,5.1441 9.9442,9.9442 0 0 1 -3.06,0.4895 z M 35.098,36.8398 a 2.7028,2.7028 0 0 1 -2.3402,-1.3511 l -8.9583,-15.517 a 2.7022,2.7022 0 0 1 4.6801,-2.7023 l 7.6076,13.1769 4.8386,-2.7938 a 2.7022,2.7022 0 0 1 2.7024,4.6801 l -7.1791,4.145 a 2.7033,2.7033 0 0 1 -1.3512,0.3622 z"
         class="e330b834-161b-487c-bb13-8bca561e66de"
         id="path14"
         style="fill:#00abc7;fill-opacity:1" />
    </g>
  </g>
</svg>
