<?xml version="1.0" encoding="UTF-8" standalone="no"?>
<svg xmlns:inkscape="http://www.inkscape.org/namespaces/inkscape" xmlns:sodipodi="http://sodipodi.sourceforge.net/DTD/sodipodi-0.dtd" xmlns="http://www.w3.org/2000/svg" xmlns:svg="http://www.w3.org/2000/svg" width="200" height="200" viewBox="0 0 200 200" fill="none" version="1.1" id="svg763" sodipodi:docname="bit.dev_logo.svg" inkscape:version="1.2.2 (b0a84865, 2022-12-01)">
  <g id="g903" transform="matrix(4.8192771,0,0,4.8192771,-1.2048193,-1.2048193)">
    <path fill-rule="evenodd" clip-rule="evenodd" d="M 41,21 C 41,32.0457 32.0457,41 21,41 9.9543,41 1,32.0457 1,21 1,9.9543 9.9543,1 21,1 32.0457,1 41,9.9543 41,21 Z" stroke="url(#paint0_linear_1342_191165)" stroke-width="1.5" id="path736" style="stroke:url(#paint0_linear_1342_191165)"></path>
    <path d="m 20.9983,38.8511 c 9.8582,0 17.8499,-7.9916 17.8499,-17.8499 0,-9.8582 -7.9917,-17.84983 -17.8499,-17.84983 -9.8582,0 -17.84986,7.99163 -17.84986,17.84983 0,9.8583 7.99166,17.8499 17.84986,17.8499 z" fill="url(#paint1_linear_1342_191165)" fill-opacity="0.6" id="path738" style="fill:url(#paint1_linear_1342_191165)"></path>
    <path d="m 20.9983,38.8511 c 9.8582,0 17.8499,-7.9916 17.8499,-17.8499 0,-9.8582 -7.9917,-17.84983 -17.8499,-17.84983 -9.8582,0 -17.84986,7.99163 -17.84986,17.84983 0,9.8583 7.99166,17.8499 17.84986,17.8499 z" fill="url(#paint2_linear_1342_191165)" id="path740" style="fill:url(#paint2_linear_1342_191165)"></path>
    <path fill-rule="evenodd" clip-rule="evenodd" d="m 19.2209,22.6618 c 0,2.036 -1.2132,3.3468 -3.3886,3.3468 -0.7809,0 -1.5061,-0.1534 -2.0639,-0.4741 C 13.127,25.1719 13.127,24.7118 13.127,24.2376 v -7.0422 c 0,-0.502 0.3067,-0.753 0.9343,-0.753 0.6275,0 0.9343,0.251 0.9343,0.753 v 2.6774 c 0.3486,-0.237 0.8088,-0.3486 1.3387,-0.3486 1.7013,0 2.8866,1.1296 2.8866,3.1376 z m -4.2253,1.6316 c 0.237,0.1395 0.5299,0.2092 0.8506,0.2092 0.9064,0 1.4642,-0.6136 1.4642,-1.7153 0,-1.1156 -0.5717,-1.757 -1.4363,-1.757 -0.3347,0 -0.6415,0.0976 -0.8785,0.2789 z m 7.7185,-6.6099 c 0,0.6415 -0.4602,1.0877 -1.1016,1.0877 -0.6415,0 -1.1017,-0.4462 -1.1017,-1.0877 0,-0.6415 0.4602,-1.0738 1.1017,-1.0738 0.6414,0 1.1016,0.4323 1.1016,1.0738 z m -0.1673,2.5938 v 4.9504 c 0,0.502 -0.3068,0.753 -0.9343,0.753 -0.6276,0 -0.9343,-0.251 -0.9343,-0.753 v -4.9504 c 0,-0.5021 0.3067,-0.7531 0.9343,-0.7531 0.6275,0 0.9343,0.251 0.9343,0.7531 z m 5.6547,4.03 c 0.5159,0 0.6693,0.5439 0.6693,0.8507 0,0.1952 -0.0697,0.3905 -0.3346,0.5438 -0.3068,0.1813 -0.8367,0.3068 -1.3806,0.3068 -1.004,0 -1.6037,-0.4044 -1.9105,-0.9622 -0.2789,-0.502 -0.3068,-1.1016 -0.3068,-1.7431 v -2.0917 h -0.488 c -0.502,0 -0.7531,-0.251 -0.7531,-0.781 0,-0.5299 0.2511,-0.7809 0.7531,-0.7809 h 0.488 v -1.2271 c 0,-0.5021 0.3068,-0.7531 0.9344,-0.7531 0.6275,0 0.9343,0.251 0.9343,0.7531 v 1.2271 h 1.1714 c 0.502,0 0.753,0.251 0.753,0.7809 0,0.53 -0.251,0.781 -0.753,0.781 H 26.807 v 2.0917 c 0,0.251 0,0.6136 0.1255,0.8507 0.0976,0.1952 0.2789,0.2789 0.5159,0.2789 0.1534,0 0.3068,-0.0419 0.4323,-0.0698 0.1116,-0.0279 0.2092,-0.0558 0.3208,-0.0558 z" fill="#fef6ff" id="path742"></path>
    <path d="M 6.91791,14.1103 C 8.79793,10.5955 10.9641,8.6542 14.2945,6.91742" stroke="#fef3fe" stroke-width="1.5" stroke-linecap="round" id="path744"></path>
  </g>
  <defs id="defs761">
    <linearGradient id="paint0_linear_1342_191165" x1="34.685501" y1="39.248199" x2="5.5626998" y2="3.95172" gradientUnits="userSpaceOnUse">
      <stop stop-color="#BE51A6" id="stop746"></stop>
      <stop offset="1" stop-color="#3400EA" id="stop748"></stop>
    </linearGradient>
    <linearGradient id="paint1_linear_1342_191165" x1="1.13811" y1="-15.6506" x2="38.848099" y2="33.178101" gradientUnits="userSpaceOnUse">
      <stop offset="0.338542" stop-color="#FA72A1" stop-opacity="0" id="stop751"></stop>
      <stop offset="1" stop-color="#FA72A1" id="stop753"></stop>
    </linearGradient>
    <linearGradient id="paint2_linear_1342_191165" x1="13.0872" y1="13.1291" x2="40.1078" y2="46.351101" gradientUnits="userSpaceOnUse">
      <stop offset="0.015625" stop-color="#2A00BB" id="stop756"></stop>
      <stop offset="1" stop-color="#861D89" id="stop758"></stop>
    </linearGradient>
  </defs>
</svg>
